<?xml version="1.0" encoding="utf-8"?>
<!-- Generator: Adobe Illustrator 23.0.3, SVG Export Plug-In . SVG Version: 6.00 Build 0)  -->
<svg version="1.1" id="Layer_1" xmlns="http://www.w3.org/2000/svg" xmlns:xlink="http://www.w3.org/1999/xlink" x="0px" y="0px"
	 viewBox="0 0 533.8 614.2" style="enable-background:new 0 0 533.8 614.2;" xml:space="preserve">
<title>Improve sales and support</title>
<style type="text/css">
	.st0{fill:#FFFFFF;}
	.st1{fill:#262D3F;}
	.st2{fill:#3E3582;}
	.st3{clip-path:url(#SVGID_64_);}
	.st4{clip-path:url(#SVGID_66_);fill:#3E3582;}
	.st5{clip-path:url(#SVGID_68_);}
	.st6{clip-path:url(#SVGID_70_);fill:#3E3582;}
	.st7{clip-path:url(#SVGID_72_);}
	.st8{clip-path:url(#SVGID_74_);fill:#3E3582;}
	.st9{clip-path:url(#SVGID_76_);}
	.st10{clip-path:url(#SVGID_78_);fill:#3E3582;}
	.st11{clip-path:url(#SVGID_80_);}
	.st12{clip-path:url(#SVGID_82_);fill:#3E3582;}
	.st13{opacity:0.35;}
	.st14{opacity:0.35;fill-rule:evenodd;clip-rule:evenodd;fill:#C4C7C6;enable-background:new    ;}
	.st15{clip-path:url(#SVGID_84_);}
	.st16{fill:#C4C7C6;}
	.st17{clip-path:url(#SVGID_86_);fill:#C4C7C6;}
	.st18{opacity:0.61;}
	.st19{clip-path:url(#SVGID_88_);}
	.st20{clip-path:url(#SVGID_90_);fill:#EF4D72;}
	.st21{fill:none;stroke:#C4C7C6;stroke-width:0.25;stroke-miterlimit:10;}
	.st22{fill:none;stroke:#C4C7C6;stroke-width:0.25;stroke-miterlimit:10;stroke-dasharray:1.9916,1.9916;}
	.st23{fill:none;stroke:#C4C7C6;stroke-width:0.25;stroke-miterlimit:10;stroke-dasharray:1.9594,1.9594;}
	.st24{opacity:0.35;fill:#C4C7C6;enable-background:new    ;}
	.st25{opacity:0.61;fill:#EF4D72;enable-background:new    ;}
	.st26{fill:#F2F9FE;}
	.st27{fill:#FEF3F3;}
	.st28{clip-path:url(#SVGID_92_);}
	.st29{clip-path:url(#SVGID_94_);fill:#262D3F;}
	.st30{clip-path:url(#SVGID_96_);}
	.st31{clip-path:url(#SVGID_98_);fill:#262D3F;}
	.st32{fill:#66ABDD;}
	.st33{fill:#FDC96F;}
	.st34{fill:#604238;}
	.st35{fill:#DE5B5B;}
</style>
<g id="Listen_to_every_customer">
</g>
<g id="Learn_from_every_interaction">
	<g id="Ratings_x2F_History">
		<g id="All_Transcripts_w_Arrow">
			<g>
				<g>
					<defs>
						<path id="SVGID_1_" d="M638.2-462.4L638.2-462.4h-7.3l2.3-2.3c0.1-0.1,0.2-0.3,0.2-0.4c0-0.2-0.1-0.3-0.2-0.4l-0.4-0.4
							c-0.1-0.1-0.3-0.2-0.4-0.2c-0.2,0-0.3,0.1-0.4,0.2l-4,3.9c-0.1,0.1-0.2,0.3-0.2,0.4c0,0.2,0.1,0.3,0.2,0.4l4,3.9
							c0.1,0.1,0.3,0.2,0.4,0.2c0.2,0,0.3-0.1,0.4-0.2l0.4-0.4c0.1-0.1,0.2-0.3,0.2-0.4s-0.1-0.3-0.2-0.4l-2.3-2.3h7.4
							c0.3,0,0.6-0.3,0.6-0.6v-0.5C638.8-462.1,638.6-462.4,638.2-462.4z"/>
					</defs>
					<clipPath id="SVGID_2_">
						<use xlink:href="#SVGID_1_"  style="overflow:visible;"/>
					</clipPath>
				</g>
			</g>
		</g>
		<g id="Referred_from">
			<g>
				<g>
					<defs>
						<path id="SVGID_3_" d="M692.8-285h397c3.3,0,6,2.7,6,6v28c0,3.3-2.7,6-6,6h-397c-3.3,0-6-2.7-6-6v-28
							C686.8-282.3,689.5-285,692.8-285z"/>
					</defs>
					<clipPath id="SVGID_4_">
						<use xlink:href="#SVGID_3_"  style="overflow:visible;"/>
					</clipPath>
				</g>
			</g>
		</g>
		<g id="Additional_Info">
			<g>
				<g>
					<defs>
						<path id="SVGID_5_" d="M692.8-237h397c3.3,0,6,2.7,6,6v28c0,3.3-2.7,6-6,6h-397c-3.3,0-6-2.7-6-6v-28
							C686.8-234.3,689.5-237,692.8-237z"/>
					</defs>
					<clipPath id="SVGID_6_">
						<use xlink:href="#SVGID_5_"  style="overflow:visible;"/>
					</clipPath>
				</g>
			</g>
		</g>
		<g id="Conversation">
			<g>
				<g>
					<defs>
						<rect id="SVGID_7_" x="606.8" y="-173" width="383" height="35"/>
					</defs>
					<clipPath id="SVGID_8_">
						<use xlink:href="#SVGID_7_"  style="overflow:visible;"/>
					</clipPath>
				</g>
			</g>
		</g>
		<g id="Tags">
			<g>
				<g>
					<defs>
						<path id="SVGID_9_" d="M664.8-320h65c1.7,0,3,1.3,3,3v11c0,1.7-1.3,3-3,3h-65c-1.7,0-3-1.3-3-3v-11
							C661.8-318.7,663.2-320,664.8-320z"/>
					</defs>
					<clipPath id="SVGID_10_">
						<use xlink:href="#SVGID_9_"  style="overflow:visible;"/>
					</clipPath>
				</g>
			</g>
			<g>
				<g>
					<defs>
						<path id="SVGID_11_" d="M740.8-320h54c1.7,0,3,1.3,3,3v11c0,1.7-1.3,3-3,3h-54c-1.7,0-3-1.3-3-3v-11
							C737.8-318.7,739.2-320,740.8-320z"/>
					</defs>
					<clipPath id="SVGID_12_">
						<use xlink:href="#SVGID_11_"  style="overflow:visible;"/>
					</clipPath>
				</g>
			</g>
		</g>
		<g id="Star_Ratings">
			<g>
				<g>
					<defs>
						<path id="SVGID_13_" d="M633-395h342.1c2.9,0,5.2,2.7,5.2,6v50c0,3.3-2.3,6-5.2,6H633c-2.9,0-5.2-2.7-5.2-6v-50
							C627.8-392.3,630.2-395,633-395z"/>
					</defs>
					<clipPath id="SVGID_14_">
						<use xlink:href="#SVGID_13_"  style="overflow:visible;"/>
					</clipPath>
				</g>
			</g>
			<g>
				<g>
					<defs>
						<polygon id="SVGID_15_" points="655.8,-360 657.7,-356.3 661.8,-355.7 658.8,-352.9 659.6,-348.8 655.8,-350.7 652.1,-348.8 
							652.8,-352.9 649.8,-355.7 654,-356.3 						"/>
					</defs>
					<clipPath id="SVGID_16_">
						<use xlink:href="#SVGID_15_"  style="overflow:visible;"/>
					</clipPath>
				</g>
			</g>
			<g>
				<g>
					<defs>
						<polygon id="SVGID_17_" points="669.8,-360 671.7,-356.3 675.8,-355.7 672.8,-352.9 673.6,-348.8 669.8,-350.7 666.1,-348.8 
							666.8,-352.9 663.8,-355.7 668,-356.3 						"/>
					</defs>
					<clipPath id="SVGID_18_">
						<use xlink:href="#SVGID_17_"  style="overflow:visible;"/>
					</clipPath>
				</g>
			</g>
			<g>
				<g>
					<defs>
						<polygon id="SVGID_19_" points="683.8,-360 685.7,-356.3 689.8,-355.7 686.8,-352.9 687.6,-348.8 683.8,-350.7 680.1,-348.8 
							680.8,-352.9 677.8,-355.7 682,-356.3 						"/>
					</defs>
					<clipPath id="SVGID_20_">
						<use xlink:href="#SVGID_19_"  style="overflow:visible;"/>
					</clipPath>
				</g>
			</g>
			<g>
				<g>
					<defs>
						<polygon id="SVGID_21_" points="697.8,-360 699.7,-356.3 703.8,-355.7 700.8,-352.9 701.6,-348.8 697.8,-350.7 694.1,-348.8 
							694.8,-352.9 691.8,-355.7 696,-356.3 						"/>
					</defs>
					<clipPath id="SVGID_22_">
						<use xlink:href="#SVGID_21_"  style="overflow:visible;"/>
					</clipPath>
				</g>
			</g>
			<g>
				<g>
					<defs>
						<polygon id="SVGID_23_" points="711.8,-360 713.7,-356.3 717.8,-355.7 714.8,-352.9 715.6,-348.8 711.8,-350.7 708.1,-348.8 
							708.8,-352.9 705.8,-355.7 710,-356.3 						"/>
					</defs>
					<clipPath id="SVGID_24_">
						<use xlink:href="#SVGID_23_"  style="overflow:visible;"/>
					</clipPath>
				</g>
			</g>
			<g>
				<g>
					<defs>
						<polygon id="SVGID_25_" points="773.8,-360 775.7,-356.3 779.8,-355.7 776.8,-352.9 777.6,-348.8 773.8,-350.7 770.1,-348.8 
							770.8,-352.9 767.8,-355.7 772,-356.3 						"/>
					</defs>
					<clipPath id="SVGID_26_">
						<use xlink:href="#SVGID_25_"  style="overflow:visible;"/>
					</clipPath>
				</g>
			</g>
			<g>
				<g>
					<defs>
						<polygon id="SVGID_27_" points="787.8,-360 789.7,-356.3 793.8,-355.7 790.8,-352.9 791.6,-348.8 787.8,-350.7 784.1,-348.8 
							784.8,-352.9 781.8,-355.7 786,-356.3 						"/>
					</defs>
					<clipPath id="SVGID_28_">
						<use xlink:href="#SVGID_27_"  style="overflow:visible;"/>
					</clipPath>
				</g>
			</g>
			<g>
				<g>
					<defs>
						<polygon id="SVGID_29_" points="801.8,-360 803.7,-356.3 807.8,-355.7 804.8,-352.9 805.6,-348.8 801.8,-350.7 798.1,-348.8 
							798.8,-352.9 795.8,-355.7 800,-356.3 						"/>
					</defs>
					<clipPath id="SVGID_30_">
						<use xlink:href="#SVGID_29_"  style="overflow:visible;"/>
					</clipPath>
				</g>
			</g>
			<g>
				<g>
					<defs>
						<polygon id="SVGID_31_" points="815.8,-360 817.7,-356.3 821.8,-355.7 818.8,-352.9 819.6,-348.8 815.8,-350.7 812.1,-348.8 
							812.8,-352.9 809.8,-355.7 814,-356.3 						"/>
					</defs>
					<clipPath id="SVGID_32_">
						<use xlink:href="#SVGID_31_"  style="overflow:visible;"/>
					</clipPath>
				</g>
			</g>
			<g>
				<g>
					<defs>
						<polygon id="SVGID_33_" points="829.8,-360 831.7,-356.3 835.8,-355.7 832.8,-352.9 833.6,-348.8 829.8,-350.7 826.1,-348.8 
							826.8,-352.9 823.8,-355.7 828,-356.3 						"/>
					</defs>
					<clipPath id="SVGID_34_">
						<use xlink:href="#SVGID_33_"  style="overflow:visible;"/>
					</clipPath>
				</g>
			</g>
			<g>
				<g>
					<defs>
						<polygon id="SVGID_35_" points="891.8,-360 893.7,-356.3 897.8,-355.7 894.8,-352.9 895.6,-348.8 891.8,-350.7 888.1,-348.8 
							888.8,-352.9 885.8,-355.7 890,-356.3 						"/>
					</defs>
					<clipPath id="SVGID_36_">
						<use xlink:href="#SVGID_35_"  style="overflow:visible;"/>
					</clipPath>
				</g>
			</g>
			<g>
				<g>
					<defs>
						<polygon id="SVGID_37_" points="905.8,-360 907.7,-356.3 911.8,-355.7 908.8,-352.9 909.6,-348.8 905.8,-350.7 902.1,-348.8 
							902.8,-352.9 899.8,-355.7 904,-356.3 						"/>
					</defs>
					<clipPath id="SVGID_38_">
						<use xlink:href="#SVGID_37_"  style="overflow:visible;"/>
					</clipPath>
				</g>
			</g>
			<g>
				<g>
					<defs>
						<polygon id="SVGID_39_" points="920.2,-360 922.1,-356.3 926.2,-355.7 923.2,-352.9 923.9,-348.8 920.2,-350.7 916.5,-348.8 
							917.2,-352.9 914.2,-355.7 918.4,-356.3 						"/>
					</defs>
					<clipPath id="SVGID_40_">
						<use xlink:href="#SVGID_39_"  style="overflow:visible;"/>
					</clipPath>
				</g>
			</g>
			<g>
				<g>
					<defs>
						<polygon id="SVGID_41_" points="934.2,-360 936.1,-356.3 940.2,-355.7 937.2,-352.9 937.9,-348.8 934.2,-350.7 930.5,-348.8 
							931.2,-352.9 928.2,-355.7 932.4,-356.3 						"/>
					</defs>
					<clipPath id="SVGID_42_">
						<use xlink:href="#SVGID_41_"  style="overflow:visible;"/>
					</clipPath>
				</g>
			</g>
			<g>
				<g>
					<defs>
						<polygon id="SVGID_43_" points="948.2,-360 950.1,-356.3 954.2,-355.7 951.2,-352.9 951.9,-348.8 948.2,-350.7 944.5,-348.8 
							945.2,-352.9 942.2,-355.7 946.4,-356.3 						"/>
					</defs>
					<clipPath id="SVGID_44_">
						<use xlink:href="#SVGID_43_"  style="overflow:visible;"/>
					</clipPath>
				</g>
			</g>
		</g>
	</g>
	<g id="Profile_Overview">
		<g id="Edit">
			<g>
				<g>
					<defs>
						<path id="SVGID_45_" d="M1140.8-351.3c0,0.2,0.1,0.3,0.3,0.2l2-0.5l-1.8-1.8L1140.8-351.3z M1149.6-358.9l-0.8-0.8
							c-0.3-0.3-0.8-0.3-1.1,0l-0.8,0.8l1.8,1.8l0.9-0.9C1149.9-358.3,1149.9-358.7,1149.6-358.9z M1146.4-358.5l1.8,1.8l-4.6,4.7
							l-1.8-1.8L1146.4-358.5z"/>
					</defs>
					<clipPath id="SVGID_46_">
						<use xlink:href="#SVGID_45_"  style="overflow:visible;"/>
					</clipPath>
				</g>
			</g>
		</g>
		<g id="Check_Mark_1">
			<g>
				<defs>
					<polygon id="SVGID_47_" points="1138.8,-319.6 1135.6,-322.9 1133.8,-321.1 1138.1,-316.8 1138.1,-316.8 1138.8,-316 
						1150.8,-328.2 1149,-330 					"/>
				</defs>
				<clipPath id="SVGID_48_">
					<use xlink:href="#SVGID_47_"  style="overflow:visible;"/>
				</clipPath>
			</g>
		</g>
		<g id="Check_Mark_2">
			<g>
				<defs>
					<polygon id="SVGID_49_" points="1138.8,-288.6 1135.6,-291.9 1133.8,-290.1 1138.1,-285.8 1138.1,-285.8 1138.8,-285 
						1150.8,-297.2 1149,-299 					"/>
				</defs>
				<clipPath id="SVGID_50_">
					<use xlink:href="#SVGID_49_"  style="overflow:visible;"/>
				</clipPath>
			</g>
		</g>
		<g id="Check_Mark_3">
			<g>
				<defs>
					<polygon id="SVGID_51_" points="1138.8,-258.6 1135.6,-261.9 1133.8,-260.1 1138.1,-255.8 1138.1,-255.8 1138.8,-255 
						1150.8,-267.2 1149,-269 					"/>
				</defs>
				<clipPath id="SVGID_52_">
					<use xlink:href="#SVGID_51_"  style="overflow:visible;"/>
				</clipPath>
			</g>
		</g>
		<g id="Headshot_profile">
			<g>
				<defs>
					<path id="SVGID_53_" d="M909.8-447h58c3.3,0,6,2.7,6,6v58c0,3.3-2.7,6-6,6h-58c-3.3,0-6-2.7-6-6v-58
						C903.8-444.3,906.5-447,909.8-447z"/>
				</defs>
				<clipPath id="SVGID_54_">
					<use xlink:href="#SVGID_53_"  style="overflow:visible;"/>
				</clipPath>
			</g>
		</g>
		<g id="add_profile_info_button">
			<g>
				<defs>
					<path id="SVGID_55_" d="M1002.8-230h134c7.2,0,13,5.8,13,13s-5.8,13-13,13h-134c-7.2,0-13-5.8-13-13S995.6-230,1002.8-230z"/>
				</defs>
				<clipPath id="SVGID_56_">
					<use xlink:href="#SVGID_55_"  style="overflow:visible;"/>
				</clipPath>
			</g>
		</g>
		<g id="History_Log_dropdown">
			<g>
				<g>
					<defs>
						<polygon id="SVGID_57_" points="1125.8,-170 1131.3,-164.5 1136.8,-170 						"/>
					</defs>
					<clipPath id="SVGID_58_">
						<use xlink:href="#SVGID_57_"  style="overflow:visible;"/>
					</clipPath>
				</g>
			</g>
		</g>
		<g id="Advanced_Info_Dropdown">
			<g>
				<g>
					<defs>
						<polygon id="SVGID_59_" points="1125.8,-122 1131.3,-116.5 1136.8,-122 						"/>
					</defs>
					<clipPath id="SVGID_60_">
						<use xlink:href="#SVGID_59_"  style="overflow:visible;"/>
					</clipPath>
				</g>
			</g>
		</g>
		<g id="Business_Dropdown">
			<g>
				<g>
					<defs>
						<polygon id="SVGID_61_" points="1125.8,-74 1131.3,-68.5 1136.8,-74 						"/>
					</defs>
					<clipPath id="SVGID_62_">
						<use xlink:href="#SVGID_61_"  style="overflow:visible;"/>
					</clipPath>
				</g>
			</g>
		</g>
	</g>
</g>
<g id="Improve_your_business_strategy">
	<g id="Tags_1_">
		<g>
			<g>
				
					<image style="overflow:visible;opacity:0.2;" width="543" height="183" xlink:href="/img/views/index/benefits/6D8A938EC75FF363.png"  transform="matrix(1 0 0 1 0 189.2)">
				</image>
				<g>
					<g>
						<path class="st0" d="M504.9,346H27.3c-6.2,0-11.2-5-11.2-11.2V217.2c0-6.2,5-11.2,11.2-11.2h477.6c6.2,0,11.2,5,11.2,11.2
							v117.6C516.1,341,511.1,346,504.9,346z"/>
					</g>
				</g>
			</g>
		</g>
		<g>
			<path class="st1" d="M44.1,229.1h-2.5v7.9h-2.3v-7.9h-2.5v-1.8h7.3V229.1z"/>
			<path class="st1" d="M51.1,237H49v-0.7c-0.3,0.3-0.9,0.9-2,0.9c-1.2,0-2.5-0.7-2.5-2.2s1.4-2.1,2.7-2.1l1.7-0.1v-0.2
				c0-0.7-0.5-1.1-1.4-1.1s-1.8,0.4-2.1,0.6l-0.6-1.5c0.6-0.3,1.7-0.7,3-0.7s2,0.3,2.6,0.8c0.5,0.5,0.8,1.2,0.8,2.3v4H51.1z
				 M48.9,234l-1.1,0.1c-0.7,0-1.1,0.3-1.1,0.8s0.4,0.9,1.1,0.9c0.6,0,1-0.4,1.1-0.6V234z"/>
			<path class="st1" d="M59.8,235.6c0,1.5-0.4,2.4-1.1,3c-0.7,0.6-1.6,1.1-3.2,1.1c-1.6,0-2.9-0.7-3.3-1l0.9-1.5
				c0.4,0.3,1.5,0.8,2.4,0.8s1.4-0.3,1.6-0.5c0.2-0.3,0.4-0.8,0.4-1.4v-0.2l0,0c-0.4,0.5-1.1,1-2.2,1c-1.7,0-3.3-1.2-3.3-3.4
				s1.6-3.4,3.3-3.4c1.2,0,1.8,0.5,2.2,1l0,0v-0.9h2.2L59.8,235.6L59.8,235.6z M56,231.7c-1,0-1.6,0.7-1.6,1.7s0.6,1.7,1.6,1.7
				s1.6-0.7,1.6-1.7S57,231.7,56,231.7z"/>
			<path class="st1" d="M65.7,236.6c-0.5,0.4-1.2,0.6-2.1,0.6c-1,0-2.1-0.3-2.9-1.1l0.8-1.3c0.6,0.5,1.5,0.8,2,0.8
				c0.6,0,1-0.1,1-0.6s-1-0.7-1.3-0.8s-0.7-0.2-1-0.3s-1.2-0.6-1.2-1.8c0-1.3,1.2-2.2,2.6-2.2c1.4,0,2.3,0.5,2.6,0.9l-0.7,1.3
				c-0.4-0.3-1.2-0.7-1.7-0.7c-0.5,0-0.8,0.1-0.8,0.5s0.5,0.5,1,0.7c0.5,0.1,0.7,0.2,1,0.3s0.7,0.3,0.9,0.5c0.2,0.2,0.6,0.7,0.6,1.4
				C66.6,235.6,66.3,236.1,65.7,236.6z"/>
		</g>
		<g>
			<path class="st2" d="M54.9,255.1h-2.3v1.8h2.2v0.6h-2.2v2.4h-0.8v-5.5h3.1V255.1z"/>
			<path class="st2" d="M59.1,258.3h-2.9c0,0.8,0.5,1.2,1.2,1.2s1.2-0.4,1.3-0.4l0.3,0.4c0,0-0.5,0.6-1.7,0.6c-1.1,0-1.9-0.8-1.9-2
				s0.9-2,1.9-2c1.1,0,1.8,0.8,1.8,1.8C59.2,258.1,59.1,258.3,59.1,258.3z M58.4,257.8c0-0.4-0.3-1.1-1.1-1.1s-1.1,0.6-1.1,1.1H58.4
				z"/>
			<path class="st2" d="M63.4,258.3h-2.9c0,0.8,0.5,1.2,1.2,1.2s1.2-0.4,1.3-0.4l0.3,0.4c0,0-0.5,0.6-1.7,0.6c-1.1,0-1.9-0.8-1.9-2
				s0.9-2,1.9-2c1.1,0,1.8,0.8,1.8,1.8C63.4,258.1,63.4,258.3,63.4,258.3z M62.7,257.8c0-0.4-0.3-1.1-1.1-1.1s-1.1,0.6-1.1,1.1H62.7
				z"/>
			<path class="st2" d="M67.8,260h-0.7v-0.6l0,0c-0.3,0.5-0.8,0.7-1.3,0.7c-1.1,0-1.8-0.9-1.8-2s0.7-2,1.8-2c0.6,0,1.1,0.3,1.3,0.7
				l0,0v-2.3h0.8v5.5H67.8z M65.9,256.8c-0.8,0-1.2,0.6-1.2,1.3s0.4,1.3,1.2,1.3s1.2-0.6,1.2-1.3S66.7,256.8,65.9,256.8z"/>
			<path class="st2" d="M71.1,260.1c-0.6,0-1-0.2-1.3-0.7l0,0v0.6H69v-5.5h0.8v2.3l0,0c0.3-0.4,0.7-0.7,1.3-0.7c1.1,0,1.8,0.8,1.8,2
				C72.9,259.2,72.2,260.1,71.1,260.1z M70.9,256.8c-0.8,0-1.2,0.6-1.2,1.3s0.5,1.3,1.2,1.3c0.8,0,1.2-0.6,1.2-1.3
				S71.7,256.8,70.9,256.8z"/>
			<path class="st2" d="M76.7,260H76v-0.5c-0.2,0.2-0.5,0.6-1.2,0.6s-1.3-0.4-1.3-1.2c0-0.7,0.6-1.1,1.5-1.2h1v-0.2
				c0-0.6-0.4-0.9-0.9-0.9s-1,0.2-1.1,0.3l-0.2-0.5c0.3-0.2,0.8-0.4,1.4-0.4s1,0.2,1.3,0.4c0.3,0.3,0.4,0.6,0.4,1.2v2.4H76.7z
				 M75.9,258.2l-0.9,0.1c-0.6,0-0.9,0.3-0.9,0.7s0.3,0.7,0.8,0.7s0.8-0.3,1-0.6V258.2z"/>
			<path class="st2" d="M80.8,259.5c-0.1,0.1-0.5,0.6-1.5,0.6s-1.9-0.8-1.9-2s0.9-2,1.9-2s1.4,0.5,1.5,0.5l-0.3,0.6
				c-0.1-0.1-0.5-0.5-1.1-0.5c-0.7,0-1.2,0.5-1.2,1.3s0.5,1.4,1.2,1.4s1.2-0.5,1.2-0.5L80.8,259.5z"/>
			<path class="st2" d="M84.9,260H84l-1.3-1.8l-0.4,0.4v1.4h-0.8v-5.5h0.8v3.2l1.6-1.5h0.9l-1.5,1.4L84.9,260z"/>
		</g>
		<g>
			<path class="st1" d="M442.2,260.1c-1.1,0-1.8-0.5-2-0.9l0.6-0.8c0.3,0.4,0.9,0.7,1.4,0.7s1-0.3,1-0.9c0-0.7-0.5-0.9-1-0.9
				c-0.4,0-0.8,0.1-1,0.3l-0.6-0.3l0.4-2.7h3.2v1h-2.3l-0.2,1c0.2-0.1,0.4-0.1,0.7-0.1c0.8,0,1.9,0.5,1.9,1.8
				C444.4,259.4,443.3,260.1,442.2,260.1z"/>
			<path class="st1" d="M449.7,258.9H449v1.1h-1.2v-1.1H445V258l2.5-3.5h1.4v3.4h0.7v1H449.7z M447.7,257.9v-2.1l-1.5,2.1H447.7z"/>
		</g>
		<g>
			<path class="st2" d="M65,289h-0.9l-1.4-2.4h-0.6v2.4h-0.8v-5.5h1.6c0.6,0,1,0.1,1.3,0.4c0.3,0.3,0.5,0.7,0.5,1.2
				c0,1-0.7,1.4-1.3,1.5L65,289z M63.6,284.3c-0.2-0.2-0.5-0.2-0.9-0.2h-0.6v1.9h0.6c0.4,0,0.7,0,0.9-0.2s0.4-0.4,0.4-0.7
				C63.9,284.7,63.8,284.5,63.6,284.3z"/>
			<path class="st2" d="M69,287.3h-2.9c0,0.8,0.5,1.2,1.2,1.2s1.2-0.4,1.3-0.4l0.3,0.4c0,0-0.5,0.6-1.7,0.6c-1.1,0-1.9-0.8-1.9-2
				s0.9-2,1.9-2c1.1,0,1.8,0.8,1.8,1.8C69,287.1,69,287.3,69,287.3z M68.3,286.8c0-0.4-0.3-1.1-1.1-1.1c-0.8,0-1.1,0.6-1.1,1.1H68.3
				z"/>
			<path class="st2" d="M71.7,284.1c0,0-0.2-0.1-0.4-0.1c-0.5,0-0.6,0.4-0.6,0.8v0.4h0.9v0.6h-0.9v3.2h-0.8v-3.2h-0.5v-0.6h0.5v-0.4
				c0-0.5,0.1-0.8,0.3-1c0.2-0.2,0.5-0.4,0.9-0.4s0.7,0.1,0.7,0.1L71.7,284.1z"/>
			<path class="st2" d="M75.2,289h-0.7v-0.5c-0.2,0.4-0.6,0.6-1.2,0.6c-0.5,0-0.9-0.2-1.1-0.4c-0.2-0.3-0.3-0.6-0.3-1.2v-2.3h0.8
				v2.2c0,0.5,0.1,1,0.8,1c0.7,0,0.9-0.6,0.9-1.2v-2h0.8L75.2,289L75.2,289z"/>
			<path class="st2" d="M79.5,289h-0.8v-2.1c0-0.6-0.1-1.1-0.8-1.1c-0.7,0-1,0.6-1,1.3v1.9h-0.8v-3.8H77v0.6l0,0
				c0.2-0.4,0.6-0.7,1.2-0.7c1.1,0,1.4,0.7,1.4,1.6L79.5,289L79.5,289z"/>
			<path class="st2" d="M84.2,289h-0.7v-0.6l0,0c-0.3,0.5-0.8,0.7-1.3,0.7c-1.1,0-1.8-0.9-1.8-2s0.7-2,1.8-2c0.6,0,1.1,0.3,1.3,0.7
				l0,0v-2.3h0.8v5.5H84.2z M82.3,285.8c-0.8,0-1.2,0.6-1.2,1.3s0.4,1.3,1.2,1.3s1.2-0.6,1.2-1.3S83.1,285.8,82.3,285.8z"/>
		</g>
		<g>
			<path class="st1" d="M325.2,289.1c-1.1,0-1.8-0.6-2-0.9l0.6-0.8c0.2,0.3,0.8,0.7,1.4,0.7c0.5,0,1-0.3,1-0.8s-0.4-0.7-0.9-0.7
				h-0.5v-0.9h0.5c0.4,0,0.7-0.2,0.7-0.6s-0.4-0.6-0.8-0.6s-0.9,0.2-1.3,0.5l-0.5-0.8c0.4-0.3,0.9-0.7,1.9-0.7s1.9,0.5,1.9,1.5
				c0,0.7-0.4,1.1-0.8,1.2l0,0c0.5,0.1,1,0.6,1,1.3C327.4,288.5,326.4,289.1,325.2,289.1z"/>
			<path class="st1" d="M330.6,289h-1.2v-4.6h-1v-0.9h2.2V289z"/>
		</g>
		<g>
			<path class="st2" d="M70.6,274.7c-0.3,0.3-0.8,0.4-1.4,0.4c-1,0-1.5-0.6-1.8-0.9l0.5-0.5c0.3,0.4,0.8,0.8,1.4,0.8
				s1.1-0.3,1.1-0.9s-0.6-0.8-0.9-0.9s-0.7-0.3-0.9-0.4c-0.1-0.1-0.4-0.2-0.6-0.4c-0.2-0.2-0.4-0.5-0.4-1c0-0.4,0.2-0.8,0.5-1.1
				c0.3-0.3,0.7-0.4,1.3-0.4c0.9,0,1.4,0.6,1.6,0.7l-0.4,0.5c-0.3-0.3-0.7-0.6-1.2-0.6s-1,0.3-1,0.8s0.4,0.7,0.7,0.8l1,0.4
				c0.1,0,0.4,0.2,0.6,0.4c0.2,0.2,0.3,0.5,0.3,0.9C71.2,273.9,70.9,274.4,70.6,274.7z"/>
			<path class="st2" d="M74.9,275h-0.7v-0.5c-0.2,0.2-0.5,0.6-1.2,0.6s-1.3-0.4-1.3-1.2c0-0.7,0.6-1.1,1.5-1.2h1v-0.2
				c0-0.6-0.4-0.9-0.9-0.9s-1,0.2-1.1,0.3l-0.2-0.5c0.3-0.2,0.8-0.4,1.4-0.4s1,0.2,1.3,0.4c0.3,0.3,0.4,0.6,0.4,1.2v2.4H74.9z
				 M74.2,273.2l-0.9,0.1c-0.6,0-0.9,0.3-0.9,0.7s0.3,0.7,0.8,0.7s0.8-0.3,1-0.6V273.2z"/>
			<path class="st2" d="M76.7,275h-0.8v-5.5h0.8V275z"/>
			<path class="st2" d="M81.2,273.3h-2.9c0,0.8,0.5,1.2,1.2,1.2s1.2-0.4,1.3-0.4l0.3,0.4c0,0-0.5,0.6-1.7,0.6c-1.1,0-1.9-0.8-1.9-2
				s0.9-2,1.9-2c1.1,0,1.8,0.8,1.8,1.8C81.3,273.1,81.2,273.3,81.2,273.3z M80.5,272.8c0-0.4-0.3-1.1-1.1-1.1
				c-0.8,0-1.1,0.6-1.1,1.1H80.5z"/>
			<path class="st2" d="M84.2,274.8c-0.3,0.2-0.6,0.3-1.1,0.3c-0.6,0-1.2-0.3-1.5-0.7L82,274c0.3,0.4,0.8,0.5,1.1,0.5
				c0.4,0,0.7-0.1,0.7-0.5s-0.6-0.5-0.9-0.6s-0.3-0.1-0.5-0.2s-0.6-0.4-0.6-0.9c0-0.7,0.6-1.1,1.3-1.1c0.7,0,1.1,0.2,1.3,0.5
				l-0.3,0.5c-0.2-0.2-0.6-0.4-1-0.4s-0.6,0.2-0.6,0.5s0.4,0.4,0.7,0.6c0.2,0.1,0.4,0.1,0.5,0.2c0.2,0.1,0.3,0.2,0.4,0.3
				c0.1,0.1,0.3,0.4,0.3,0.7C84.6,274.3,84.5,274.5,84.2,274.8z"/>
		</g>
		<g>
			<path class="st1" d="M369.2,275.1c-1.1,0-1.8-0.6-2-0.9l0.6-0.8c0.2,0.3,0.8,0.7,1.4,0.7c0.5,0,1-0.3,1-0.8s-0.4-0.7-0.9-0.7
				h-0.5v-0.9h0.5c0.4,0,0.7-0.2,0.7-0.6s-0.4-0.6-0.8-0.6s-0.9,0.2-1.3,0.5l-0.5-0.8c0.4-0.3,0.9-0.7,1.9-0.7s1.9,0.5,1.9,1.5
				c0,0.7-0.4,1.1-0.8,1.2l0,0c0.5,0.1,1,0.6,1,1.3C371.4,274.5,370.4,275.1,369.2,275.1z"/>
			<path class="st1" d="M375.7,274.4c-0.4,0.4-1,0.7-1.7,0.7c-0.9,0-1.5-0.4-1.7-0.5l0.5-0.8c0.1,0.1,0.6,0.4,1.2,0.4
				c0.4,0,0.6-0.1,0.8-0.3c0.3-0.3,0.4-0.7,0.4-1.3c-0.1,0.2-0.5,0.6-1.4,0.6s-1.7-0.6-1.7-1.7s0.8-2,2.1-2c0.9,0,1.5,0.5,1.8,0.9
				s0.5,1,0.5,1.9C376.4,273.2,376.2,273.9,375.7,274.4z M374.2,270.3c-0.6,0-0.9,0.4-0.9,0.9s0.3,0.9,0.9,0.9s0.9-0.4,0.9-0.9
				C375.1,270.8,374.8,270.3,374.2,270.3z"/>
		</g>
		<g>
			<path class="st2" d="M57.2,303.7c-0.3,0.3-0.8,0.4-1.4,0.4c-1,0-1.5-0.6-1.8-0.9l0.5-0.5c0.3,0.4,0.8,0.8,1.4,0.8
				s1.1-0.3,1.1-0.9s-0.6-0.8-0.9-0.9c-0.3-0.1-0.7-0.3-0.9-0.4c-0.1-0.1-0.4-0.2-0.6-0.4c-0.2-0.2-0.4-0.5-0.4-1
				c0-0.4,0.2-0.8,0.5-1.1c0.3-0.3,0.7-0.4,1.3-0.4c0.9,0,1.4,0.6,1.6,0.7l-0.4,0.5c-0.3-0.3-0.7-0.6-1.2-0.6s-1,0.3-1,0.8
				s0.4,0.7,0.7,0.8l1,0.4c0.1,0,0.4,0.2,0.6,0.4c0.2,0.2,0.3,0.5,0.3,0.9C57.8,302.9,57.5,303.4,57.2,303.7z"/>
			<path class="st2" d="M61.9,304h-0.8v-2.2c0-0.5-0.1-1.1-0.8-1.1s-1,0.6-1,1.4v1.9h-0.8v-5.5h0.8v2.3l0,0c0.2-0.4,0.6-0.7,1.2-0.7
				c1.1,0,1.4,0.7,1.4,1.6C61.9,301.7,61.9,304,61.9,304z"/>
			<path class="st2" d="M63.4,299.4c-0.3,0-0.5-0.2-0.5-0.5s0.2-0.5,0.5-0.5s0.5,0.2,0.5,0.5C63.9,299.2,63.7,299.4,63.4,299.4z
				 M63.8,304H63v-3.8h0.8V304z"/>
			<path class="st2" d="M67,304.1c-0.6,0-1-0.3-1.3-0.7l0,0v2.1h-0.8v-5.3h0.7v0.6l0,0c0.3-0.4,0.8-0.7,1.4-0.7c1.1,0,1.8,0.8,1.8,2
				C68.8,303.2,68.1,304.1,67,304.1z M66.8,300.8c-0.8,0-1.2,0.6-1.2,1.3s0.4,1.3,1.2,1.3c0.8,0,1.2-0.6,1.2-1.3
				S67.6,300.8,66.8,300.8z"/>
			<path class="st2" d="M71.7,304.1c-0.6,0-1-0.3-1.3-0.7l0,0v2.1h-0.8v-5.3h0.7v0.6l0,0c0.3-0.4,0.8-0.7,1.4-0.7
				c1.1,0,1.8,0.8,1.8,2C73.6,303.2,72.9,304.1,71.7,304.1z M71.6,300.8c-0.8,0-1.2,0.6-1.2,1.3s0.4,1.3,1.2,1.3
				c0.8,0,1.2-0.6,1.2-1.3S72.4,300.8,71.6,300.8z"/>
			<path class="st2" d="M74.8,299.4c-0.3,0-0.5-0.2-0.5-0.5s0.2-0.5,0.5-0.5s0.5,0.2,0.5,0.5C75.3,299.2,75.1,299.4,74.8,299.4z
				 M75.2,304h-0.8v-3.8h0.8V304z"/>
			<path class="st2" d="M79.6,304h-0.8v-2.1c0-0.6-0.1-1.1-0.8-1.1c-0.7,0-1,0.6-1,1.3v1.9h-0.8v-3.8H77v0.6l0,0
				c0.2-0.4,0.6-0.7,1.2-0.7c1.1,0,1.4,0.7,1.4,1.6V304z"/>
			<path class="st2" d="M84.3,303.2c0,0.8-0.1,1.3-0.4,1.6c-0.3,0.3-0.8,0.7-1.7,0.7c-0.9,0-1.6-0.5-1.7-0.6l0.4-0.5
				c0.2,0.2,0.8,0.5,1.4,0.5s0.9-0.2,1-0.4c0.2-0.2,0.3-0.5,0.3-1.1v-0.2l0,0c-0.3,0.4-0.7,0.7-1.3,0.7c-1,0-1.8-0.7-1.8-1.9
				s0.9-1.9,1.8-1.9c0.7,0,1.1,0.3,1.3,0.7l0,0v-0.6h0.8v3H84.3z M82.3,300.7c-0.8,0-1.2,0.6-1.2,1.3s0.4,1.3,1.2,1.3
				c0.8,0,1.2-0.6,1.2-1.3S83.1,300.7,82.3,300.7z"/>
		</g>
		<g>
			<path class="st1" d="M312.5,304h-4l-0.2-0.8l1.9-1.7c0.5-0.5,0.8-0.8,0.8-1.3s-0.3-0.8-0.9-0.8s-1,0.4-1.3,0.7l-0.5-0.8
				c0.1-0.2,0.8-0.9,2-0.9s2,0.7,2,1.6s-0.7,1.5-1.2,1.9l-1.1,1h2.6L312.5,304L312.5,304z"/>
			<path class="st1" d="M316.7,303.4c-0.4,0.4-1,0.7-1.7,0.7c-0.9,0-1.5-0.4-1.7-0.5l0.5-0.8c0.1,0.1,0.6,0.4,1.2,0.4
				c0.4,0,0.6-0.1,0.8-0.3c0.3-0.3,0.4-0.7,0.4-1.3c-0.1,0.2-0.5,0.6-1.4,0.6s-1.7-0.6-1.7-1.7s0.8-2,2.1-2c0.9,0,1.5,0.5,1.8,0.9
				s0.5,1,0.5,1.9C317.4,302.2,317.2,302.9,316.7,303.4z M315.2,299.3c-0.6,0-0.9,0.4-0.9,0.9s0.3,0.9,0.9,0.9s0.9-0.4,0.9-0.9
				C316.1,299.8,315.8,299.3,315.2,299.3z"/>
		</g>
		<g>
			<path class="st2" d="M59,320.3c-0.4,0.4-1.1,0.7-2.1,0.7h-1.7v-5.5h1.7c1,0,1.7,0.4,2.1,0.7c0.4,0.4,0.9,1,0.9,2
				C59.8,319.3,59.4,319.9,59,320.3z M58.4,316.7c-0.3-0.3-0.8-0.5-1.5-0.5H56v4.2h0.9c0.7,0,1.2-0.2,1.5-0.5s0.7-0.8,0.7-1.6
				C59.1,317.4,58.7,316.9,58.4,316.7z"/>
			<path class="st2" d="M61.1,316.4c-0.3,0-0.5-0.2-0.5-0.5s0.2-0.5,0.5-0.5s0.5,0.2,0.5,0.5C61.6,316.2,61.4,316.4,61.1,316.4z
				 M61.5,321h-0.8v-3.8h0.8V321z"/>
			<path class="st2" d="M64.7,320.8c-0.3,0.2-0.6,0.3-1.1,0.3c-0.6,0-1.2-0.3-1.5-0.7l0.4-0.4c0.3,0.4,0.8,0.5,1.1,0.5
				c0.4,0,0.7-0.1,0.7-0.5s-0.6-0.5-0.9-0.6s-0.3-0.1-0.5-0.2s-0.6-0.4-0.6-0.9c0-0.7,0.6-1.1,1.3-1.1s1.1,0.2,1.3,0.5l-0.3,0.5
				c-0.2-0.2-0.6-0.4-1-0.4S63,318,63,318.3s0.4,0.4,0.7,0.6c0.2,0.1,0.4,0.1,0.5,0.2c0.2,0.1,0.3,0.2,0.4,0.3
				c0.1,0.1,0.3,0.4,0.3,0.7C65.1,320.3,65,320.5,64.7,320.8z"/>
			<path class="st2" d="M69.1,320.5c-0.1,0.1-0.5,0.6-1.5,0.6s-1.9-0.8-1.9-2s0.9-2,1.9-2s1.4,0.5,1.5,0.5l-0.3,0.6
				c-0.1-0.1-0.5-0.5-1.1-0.5c-0.7,0-1.2,0.5-1.2,1.3s0.5,1.4,1.2,1.4s1.2-0.5,1.2-0.5L69.1,320.5z"/>
			<path class="st2" d="M71.4,321.1c-1.1,0-2-0.8-2-2s0.9-2,2-2s2,0.8,2,2C73.4,320.3,72.6,321.1,71.4,321.1z M71.4,317.8
				c-0.8,0-1.2,0.6-1.2,1.3c0,0.8,0.5,1.3,1.2,1.3c0.8,0,1.2-0.6,1.2-1.3C72.7,318.3,72.2,317.8,71.4,317.8z"/>
			<path class="st2" d="M77.5,321h-0.7v-0.5c-0.2,0.4-0.6,0.6-1.2,0.6c-0.5,0-0.9-0.2-1.1-0.4c-0.2-0.3-0.3-0.6-0.3-1.2v-2.3H75v2.2
				c0,0.5,0.1,1,0.8,1c0.7,0,0.9-0.6,0.9-1.2v-2h0.8C77.5,317.2,77.5,321,77.5,321z"/>
			<path class="st2" d="M81.8,321H81v-2.1c0-0.6-0.1-1.1-0.8-1.1c-0.7,0-1,0.6-1,1.3v1.9h-0.8v-3.8h0.8v0.6l0,0
				c0.2-0.4,0.6-0.7,1.2-0.7c1.1,0,1.4,0.7,1.4,1.6C81.8,318.7,81.8,321,81.8,321z"/>
			<path class="st2" d="M84.7,321c0,0-0.3,0.1-0.7,0.1c-0.4,0-0.6-0.2-0.8-0.4c-0.2-0.2-0.2-0.5-0.2-1.1v-1.7h-0.6v-0.6H83v-1.1h0.8
				v1.1h0.9v0.6h-0.9v1.7c0,0.3,0,0.5,0.1,0.7c0.1,0.1,0.2,0.2,0.4,0.2c0.2,0,0.4-0.1,0.4-0.1L84.7,321z"/>
		</g>
		<g>
			<path class="st1" d="M259.5,321h-4l-0.2-0.8l1.9-1.7c0.5-0.5,0.8-0.8,0.8-1.3s-0.3-0.8-0.9-0.8s-1,0.4-1.3,0.7l-0.5-0.8
				c0.1-0.2,0.8-0.9,2-0.9c1.2,0,2,0.7,2,1.6s-0.7,1.5-1.2,1.9l-1.1,1h2.6L259.5,321L259.5,321z"/>
			<path class="st1" d="M262.3,321.1c-1.6,0-2.3-1.4-2.3-2.8c0-1.5,0.7-2.8,2.3-2.8c1.6,0,2.3,1.4,2.3,2.8
				C264.6,319.7,263.9,321.1,262.3,321.1z M262.3,316.5c-0.7,0-1,0.8-1,1.7s0.3,1.8,1,1.8s1-0.8,1-1.8S263,316.5,262.3,316.5z"/>
		</g>
		<g>
			<g>
				<defs>
					<path id="SVGID_63_" d="M95.3,255h336c1.4,0,2.5,1.1,2.5,2.5s-1.1,2.5-2.5,2.5h-336c-1.4,0-2.5-1.1-2.5-2.5S93.9,255,95.3,255z
						"/>
				</defs>
				<clipPath id="SVGID_64_">
					<use xlink:href="#SVGID_63_"  style="overflow:visible;"/>
				</clipPath>
				<g class="st3">
					<g>
						<defs>
							<rect id="SVGID_65_" x="-793.2" y="-2836" width="1440" height="6346"/>
						</defs>
						<clipPath id="SVGID_66_">
							<use xlink:href="#SVGID_65_"  style="overflow:visible;"/>
						</clipPath>
						<rect x="87.8" y="250" class="st4" width="351" height="15"/>
					</g>
				</g>
			</g>
		</g>
		<g>
			<g>
				<defs>
					<path id="SVGID_67_" d="M95.3,284h217c1.4,0,2.5,1.1,2.5,2.5s-1.1,2.5-2.5,2.5h-217c-1.4,0-2.5-1.1-2.5-2.5S93.9,284,95.3,284z
						"/>
				</defs>
				<clipPath id="SVGID_68_">
					<use xlink:href="#SVGID_67_"  style="overflow:visible;"/>
				</clipPath>
				<g class="st5">
					<g>
						<defs>
							<rect id="SVGID_69_" x="-793.2" y="-2836" width="1440" height="6346"/>
						</defs>
						<clipPath id="SVGID_70_">
							<use xlink:href="#SVGID_69_"  style="overflow:visible;"/>
						</clipPath>
						<rect x="87.8" y="279" class="st6" width="232" height="15"/>
					</g>
				</g>
			</g>
		</g>
		<g>
			<g>
				<defs>
					<path id="SVGID_71_" d="M95.3,270h262c1.4,0,2.5,1.1,2.5,2.5s-1.1,2.5-2.5,2.5h-262c-1.4,0-2.5-1.1-2.5-2.5S93.9,270,95.3,270z
						"/>
				</defs>
				<clipPath id="SVGID_72_">
					<use xlink:href="#SVGID_71_"  style="overflow:visible;"/>
				</clipPath>
				<g class="st7">
					<g>
						<defs>
							<rect id="SVGID_73_" x="-793.2" y="-2836" width="1440" height="6346"/>
						</defs>
						<clipPath id="SVGID_74_">
							<use xlink:href="#SVGID_73_"  style="overflow:visible;"/>
						</clipPath>
						<rect x="87.8" y="265" class="st8" width="277" height="15"/>
					</g>
				</g>
			</g>
		</g>
		<g>
			<g>
				<defs>
					<path id="SVGID_75_" d="M95.3,299h202c1.4,0,2.5,1.1,2.5,2.5s-1.1,2.5-2.5,2.5h-202c-1.4,0-2.5-1.1-2.5-2.5S93.9,299,95.3,299z
						"/>
				</defs>
				<clipPath id="SVGID_76_">
					<use xlink:href="#SVGID_75_"  style="overflow:visible;"/>
				</clipPath>
				<g class="st9">
					<g>
						<defs>
							<rect id="SVGID_77_" x="-793.2" y="-2836" width="1440" height="6346"/>
						</defs>
						<clipPath id="SVGID_78_">
							<use xlink:href="#SVGID_77_"  style="overflow:visible;"/>
						</clipPath>
						<rect x="87.8" y="294" class="st10" width="217" height="15"/>
					</g>
				</g>
			</g>
		</g>
		<g>
			<g>
				<defs>
					<path id="SVGID_79_" d="M95.3,316h149c1.4,0,2.5,1.1,2.5,2.5s-1.1,2.5-2.5,2.5h-149c-1.4,0-2.5-1.1-2.5-2.5S93.9,316,95.3,316z
						"/>
				</defs>
				<clipPath id="SVGID_80_">
					<use xlink:href="#SVGID_79_"  style="overflow:visible;"/>
				</clipPath>
				<g class="st11">
					<g>
						<defs>
							<rect id="SVGID_81_" x="-793.2" y="-2836" width="1440" height="6346"/>
						</defs>
						<clipPath id="SVGID_82_">
							<use xlink:href="#SVGID_81_"  style="overflow:visible;"/>
						</clipPath>
						<rect x="87.8" y="311" class="st12" width="164" height="15"/>
					</g>
				</g>
			</g>
		</g>
	</g>
	<g id="Chat_Volume">
		<g>
			<g>
				
					<image style="overflow:visible;opacity:0.2;" width="543" height="249" xlink:href="/img/views/index/benefits/6D8A938EC75FF361.png"  transform="matrix(1 0 0 1 0 345.2)">
				</image>
				<g>
					<g>
						<path class="st0" d="M505.6,567.7H28c-6.2,0-11.2-5-11.2-11.2V372.7c0-6.2,5-11.2,11.2-11.2h477.6c6.2,0,11.2,5,11.2,11.2
							v183.8C516.8,562.7,511.8,567.7,505.6,567.7z"/>
					</g>
				</g>
			</g>
		</g>
		<g>
			<path class="st1" d="M45.8,391.9c-0.5,0.5-1.5,1.3-3.5,1.3c-2.8,0-5.1-1.9-5.1-5s2.3-5,5.1-5c2,0,3.1,0.8,3.3,1.1l-0.7,1.9
				c-0.2-0.2-1.2-1-2.5-1c-1.6,0-2.9,1.1-2.9,3s1.3,3,2.9,3c1.2,0,2.1-0.5,2.6-1L45.8,391.9z"/>
			<path class="st1" d="M53.5,393h-2.3v-3.6c0-0.8-0.1-1.6-1.1-1.6s-1.2,0.8-1.2,1.8v3.4h-2.2v-9.7H49v2.3c0,0.7,0,1.5,0,1.5
				c0.4-0.6,1-1.1,2-1.1c2,0,2.5,1.3,2.5,3V393z"/>
			<path class="st1" d="M61.1,393H59v-0.7c-0.3,0.3-0.9,0.9-2,0.9c-1.2,0-2.5-0.7-2.5-2.2s1.4-2.1,2.7-2.1l1.7-0.1v-0.2
				c0-0.7-0.5-1.1-1.4-1.1s-1.8,0.4-2.1,0.6l-0.6-1.5c0.6-0.3,1.7-0.7,3-0.7s2,0.3,2.6,0.8c0.5,0.5,0.8,1.2,0.8,2.3v4H61.1z
				 M58.9,390l-1.1,0.1c-0.7,0-1.1,0.3-1.1,0.8s0.4,0.9,1.1,0.9c0.6,0,1-0.4,1.1-0.6V390z"/>
			<path class="st1" d="M66.6,387.8h-1.5v2.5c0,0.6,0.1,0.7,0.2,0.9c0.1,0.1,0.2,0.2,0.5,0.2c0.4,0,0.7-0.1,0.7-0.1l0.1,1.8
				c-0.2,0-0.8,0.2-1.6,0.2c-0.8,0-1.3-0.2-1.7-0.6s-0.5-1-0.5-2V388h-1v-1.7h1v-1.9h2.3v1.9h1.5C66.6,386.3,66.6,387.8,66.6,387.8z
				"/>
			<path class="st1" d="M78.8,383.3l-3.6,9.7H73l-3.6-9.7h2.4l2.3,6.7l2.3-6.7H78.8z"/>
			<path class="st1" d="M82.9,393.2c-2.2,0-3.8-1.4-3.8-3.6s1.7-3.6,3.8-3.6s3.8,1.4,3.8,3.6C86.7,391.8,85.1,393.2,82.9,393.2z
				 M82.9,387.7c-1,0-1.6,0.8-1.6,1.8s0.6,1.8,1.6,1.8s1.6-0.8,1.6-1.8S83.9,387.7,82.9,387.7z"/>
			<path class="st1" d="M90.1,393h-2.2v-9.7h2.2V393z"/>
			<path class="st1" d="M98.3,393h-2.2v-0.8c-0.3,0.4-1,0.9-2,0.9s-1.6-0.4-2-0.8c-0.3-0.5-0.5-1.1-0.5-2.1V386h2.2v3.9
				c0,0.8,0.2,1.3,1,1.3s1.2-0.6,1.2-1.5V386h2.2v7H98.3z"/>
			<path class="st1" d="M110.5,393h-2.3v-3.8c0-0.7-0.1-1.4-0.9-1.4s-1.1,0.7-1.1,1.7v3.5H104v-3.8c0-0.9-0.2-1.4-0.9-1.4
				c-0.8,0-1.1,0.7-1.1,1.7v3.5h-2.2v-6.9h2.2v1l0,0c0.4-0.6,1-1.1,1.9-1.1c1,0,1.7,0.3,2.1,1.3c0.5-0.8,1.2-1.3,2.2-1.3
				c1.8,0,2.4,1.2,2.4,2.9L110.5,393L110.5,393z"/>
			<path class="st1" d="M118.7,390.1h-4.9c0.1,1,0.9,1.4,1.8,1.4s1.7-0.4,2.1-0.7l0.9,1.2c-0.2,0.2-1.1,1.1-3.3,1.1
				c-2.1,0-3.7-1.3-3.7-3.6s1.7-3.6,3.7-3.6s3.5,1.4,3.5,3.4C118.8,389.7,118.7,390.1,118.7,390.1z M116.7,388.8
				c0-0.6-0.5-1.4-1.4-1.4s-1.4,0.7-1.4,1.4H116.7z"/>
		</g>
		<g>
			<path class="st1" d="M56,411.1c-1.6,0-2.8-1.1-2.8-2.8c0-1.8,1.3-2.8,2.8-2.8c1.6,0,2.8,1.1,2.8,2.8S57.5,411.1,56,411.1z
				 M56,406.1c-1.1,0-2.1,0.8-2.1,2.2c0,1.3,0.9,2.2,2.1,2.2c1.1,0,2.1-0.8,2.1-2.2C58,406.9,57.1,406.1,56,406.1z"/>
		</g>
		<g>
			<path class="st1" d="M63.7,406.1c0,0-0.2-0.1-0.4-0.1c-0.5,0-0.6,0.4-0.6,0.8v0.4h0.9v0.6h-0.9v3.2H62v-3.2h-1.4v3.2h-0.8v-3.2
				h-0.5v-0.6h0.5v-0.4c0-0.5,0.1-0.8,0.3-1s0.5-0.4,0.9-0.4s0.7,0.1,0.7,0.1v0.6c0,0-0.2-0.1-0.4-0.1c-0.5,0-0.6,0.4-0.6,0.8v0.4
				H62v-0.4c0-0.5,0.1-0.8,0.3-1s0.5-0.4,0.9-0.4s0.7,0.1,0.7,0.1L63.7,406.1z M64.8,411H64v-5.5h0.8V411z"/>
		</g>
		<g>
			<path class="st1" d="M66.3,406.4c-0.3,0-0.5-0.2-0.5-0.5s0.2-0.5,0.5-0.5s0.5,0.2,0.5,0.5C66.8,406.2,66.6,406.4,66.3,406.4z
				 M66.7,411h-0.8v-3.8h0.8V411z"/>
			<path class="st1" d="M71.1,411h-0.8v-2.1c0-0.6-0.1-1.1-0.8-1.1c-0.7,0-1,0.6-1,1.3v1.9h-0.8v-3.8h0.8v0.6l0,0
				c0.2-0.4,0.6-0.7,1.2-0.7c1.1,0,1.4,0.7,1.4,1.6C71.1,408.7,71.1,411,71.1,411z"/>
			<path class="st1" d="M75.6,409.3h-2.9c0,0.8,0.5,1.2,1.2,1.2s1.2-0.4,1.3-0.4l0.3,0.4c0,0-0.5,0.6-1.7,0.6c-1.1,0-1.9-0.8-1.9-2
				s0.9-2,1.9-2c1.1,0,1.8,0.8,1.8,1.8C75.6,409.1,75.6,409.3,75.6,409.3z M74.9,408.8c0-0.4-0.3-1.1-1.1-1.1
				c-0.8,0-1.1,0.6-1.1,1.1H74.9z"/>
			<path class="st1" d="M83.5,411h-0.8v-2.2c0-0.4-0.1-1-0.7-1s-0.9,0.6-0.9,1.3v2h-0.8v-2.2c0-0.6-0.1-1-0.7-1s-0.9,0.6-0.9,1.3v2
				H78v-3.8h0.8v0.6l0,0c0.2-0.4,0.6-0.7,1.1-0.7c0.6,0,1,0.3,1.1,0.8c0.3-0.5,0.7-0.8,1.2-0.8c1,0,1.3,0.7,1.3,1.6V411z"/>
			<path class="st1" d="M87.9,409.3H85c0,0.8,0.5,1.2,1.2,1.2s1.2-0.4,1.3-0.4l0.3,0.4c0,0-0.5,0.6-1.7,0.6c-1.1,0-1.9-0.8-1.9-2
				s0.9-2,1.9-2c1.1,0,1.8,0.8,1.8,1.8C88,409.1,87.9,409.3,87.9,409.3z M87.2,408.8c0-0.4-0.3-1.1-1.1-1.1c-0.8,0-1.1,0.6-1.1,1.1
				H87.2z"/>
			<path class="st1" d="M90.9,410.8c-0.3,0.2-0.6,0.3-1.1,0.3c-0.6,0-1.2-0.3-1.5-0.7l0.4-0.4c0.3,0.4,0.8,0.5,1.1,0.5
				c0.4,0,0.7-0.1,0.7-0.5s-0.6-0.5-0.9-0.6s-0.3-0.1-0.5-0.2s-0.6-0.4-0.6-0.9c0-0.7,0.6-1.1,1.3-1.1c0.7,0,1.1,0.2,1.3,0.5
				l-0.3,0.5c-0.2-0.2-0.6-0.4-1-0.4s-0.6,0.2-0.6,0.5s0.4,0.4,0.7,0.6c0.2,0.1,0.4,0.1,0.5,0.2c0.2,0.1,0.3,0.2,0.4,0.3
				c0.1,0.1,0.3,0.4,0.3,0.7C91.3,410.3,91.1,410.5,90.9,410.8z"/>
			<path class="st1" d="M94.2,410.8c-0.3,0.2-0.6,0.3-1.1,0.3c-0.6,0-1.2-0.3-1.5-0.7L92,410c0.3,0.4,0.8,0.5,1.1,0.5
				c0.4,0,0.7-0.1,0.7-0.5s-0.6-0.5-0.9-0.6s-0.3-0.1-0.5-0.2s-0.6-0.4-0.6-0.9c0-0.7,0.6-1.1,1.3-1.1c0.7,0,1.1,0.2,1.3,0.5
				l-0.3,0.5c-0.2-0.2-0.6-0.4-1-0.4s-0.6,0.2-0.6,0.5s0.4,0.4,0.7,0.6c0.2,0.1,0.4,0.1,0.5,0.2c0.2,0.1,0.3,0.2,0.4,0.3
				c0.1,0.1,0.3,0.4,0.3,0.7C94.6,410.3,94.4,410.5,94.2,410.8z"/>
			<path class="st1" d="M98.3,411h-0.7v-0.5c-0.2,0.2-0.5,0.6-1.2,0.6s-1.3-0.4-1.3-1.2c0-0.7,0.6-1.1,1.5-1.2h1v-0.2
				c0-0.6-0.4-0.9-0.9-0.9s-1,0.2-1.1,0.3l-0.2-0.5c0.3-0.2,0.8-0.4,1.4-0.4s1,0.2,1.3,0.4c0.3,0.3,0.4,0.6,0.4,1.2v2.4H98.3z
				 M97.5,409.2l-0.9,0.1c-0.6,0-0.9,0.3-0.9,0.7s0.3,0.7,0.8,0.7s0.8-0.3,1-0.6V409.2z"/>
			<path class="st1" d="M103,410.2c0,0.8-0.1,1.3-0.4,1.6c-0.3,0.3-0.8,0.7-1.7,0.7c-0.9,0-1.6-0.5-1.7-0.6l0.4-0.5
				c0.2,0.2,0.8,0.5,1.4,0.5s0.9-0.2,1-0.4c0.2-0.2,0.3-0.5,0.3-1.1v-0.2l0,0c-0.3,0.4-0.7,0.7-1.3,0.7c-1,0-1.8-0.7-1.8-1.9
				s0.9-1.9,1.8-1.9c0.7,0,1.1,0.3,1.3,0.7l0,0v-0.6h0.8v3H103z M101,407.7c-0.8,0-1.2,0.6-1.2,1.3s0.4,1.3,1.2,1.3
				c0.8,0,1.2-0.6,1.2-1.3S101.8,407.7,101,407.7z"/>
			<path class="st1" d="M107.5,409.3h-2.9c0,0.8,0.5,1.2,1.2,1.2s1.2-0.4,1.3-0.4l0.3,0.4c0,0-0.5,0.6-1.7,0.6c-1.1,0-1.9-0.8-1.9-2
				s0.9-2,1.9-2c1.1,0,1.8,0.8,1.8,1.8C107.5,409.1,107.5,409.3,107.5,409.3z M106.8,408.8c0-0.4-0.3-1.1-1.1-1.1
				c-0.8,0-1.1,0.6-1.1,1.1H106.8z"/>
			<path class="st1" d="M110.4,410.8c-0.3,0.2-0.6,0.3-1.1,0.3c-0.6,0-1.2-0.3-1.5-0.7l0.4-0.4c0.3,0.4,0.8,0.5,1.1,0.5
				c0.4,0,0.7-0.1,0.7-0.5s-0.6-0.5-0.9-0.6s-0.3-0.1-0.5-0.2s-0.6-0.4-0.6-0.9c0-0.7,0.6-1.1,1.3-1.1c0.7,0,1.1,0.2,1.3,0.5
				l-0.3,0.5c-0.2-0.2-0.6-0.4-1-0.4s-0.6,0.2-0.6,0.5s0.4,0.4,0.7,0.6c0.2,0.1,0.4,0.1,0.5,0.2c0.2,0.1,0.3,0.2,0.4,0.3
				c0.1,0.1,0.3,0.4,0.3,0.7C110.8,410.3,110.7,410.5,110.4,410.8z"/>
		</g>
		<g>
			<path class="st1" d="M149,410.3c-0.3,0.4-1,0.8-2,0.8c-1.6,0-2.8-1.1-2.8-2.8c0-1.7,1.2-2.8,2.8-2.8c1,0,1.7,0.4,2,0.7l-0.3,0.6
				c-0.2-0.3-0.8-0.7-1.6-0.7c-1.2,0-2.1,0.9-2.1,2.2c0,1.3,0.9,2.2,2.1,2.2c0.7,0,1.3-0.3,1.6-0.7L149,410.3z"/>
			<path class="st1" d="M153,411h-0.8v-2.2c0-0.5-0.1-1.1-0.8-1.1s-1,0.6-1,1.4v1.9h-0.8v-5.5h0.8v2.3l0,0c0.2-0.4,0.6-0.7,1.2-0.7
				c1.1,0,1.4,0.7,1.4,1.6L153,411L153,411z"/>
			<path class="st1" d="M157,411h-0.7v-0.5c-0.2,0.2-0.5,0.6-1.2,0.6s-1.3-0.4-1.3-1.2c0-0.7,0.6-1.1,1.5-1.2h1v-0.2
				c0-0.6-0.4-0.9-0.9-0.9s-1,0.2-1.1,0.3l-0.2-0.5c0.3-0.2,0.8-0.4,1.4-0.4c0.6,0,1,0.2,1.3,0.4c0.3,0.3,0.4,0.6,0.4,1.2v2.4H157z
				 M156.2,409.2l-0.9,0.1c-0.6,0-0.9,0.3-0.9,0.7s0.3,0.7,0.8,0.7s0.8-0.3,1-0.6L156.2,409.2L156.2,409.2z"/>
			<path class="st1" d="M159.8,411c0,0-0.3,0.1-0.7,0.1s-0.6-0.2-0.8-0.4c-0.2-0.2-0.2-0.5-0.2-1.1v-1.7h-0.6v-0.6h0.6v-1.1h0.8v1.1
				h0.9v0.6h-0.9v1.7c0,0.3,0,0.5,0.1,0.7c0.1,0.1,0.2,0.2,0.4,0.2s0.4-0.1,0.4-0.1V411z"/>
			<path class="st1" d="M162.6,410.8c-0.3,0.2-0.6,0.3-1.1,0.3c-0.6,0-1.2-0.3-1.5-0.7l0.4-0.4c0.3,0.4,0.8,0.5,1.1,0.5
				c0.4,0,0.7-0.1,0.7-0.5s-0.6-0.5-0.9-0.6s-0.3-0.1-0.5-0.2s-0.6-0.4-0.6-0.9c0-0.7,0.6-1.1,1.3-1.1s1.1,0.2,1.3,0.5l-0.3,0.5
				c-0.2-0.2-0.6-0.4-1-0.4s-0.6,0.2-0.6,0.5s0.4,0.4,0.7,0.6c0.2,0.1,0.4,0.1,0.5,0.2c0.2,0.1,0.3,0.2,0.4,0.3
				c0.1,0.1,0.3,0.4,0.3,0.7C163,410.3,162.9,410.5,162.6,410.8z"/>
		</g>
		<g class="st13">
			<g>
				<circle id="SVGID_161_" class="st14" cx="41.8" cy="408" r="5"/>
			</g>
			<g>
				<defs>
					<circle id="SVGID_83_" cx="41.8" cy="408" r="5"/>
				</defs>
				<clipPath id="SVGID_84_">
					<use xlink:href="#SVGID_83_"  style="overflow:visible;"/>
				</clipPath>
				<g class="st15">
					<g>
						<rect id="SVGID_163_" x="-793.2" y="-2831" class="st16" width="1440" height="6346"/>
					</g>
					<g>
						<defs>
							<rect id="SVGID_85_" x="-793.2" y="-2831" width="1440" height="6346"/>
						</defs>
						<clipPath id="SVGID_86_">
							<use xlink:href="#SVGID_85_"  style="overflow:visible;"/>
						</clipPath>
						<rect x="31.8" y="398" class="st17" width="20" height="20"/>
					</g>
				</g>
			</g>
		</g>
		<g class="st18">
			<g>
				<defs>
					<circle id="SVGID_87_" cx="132.8" cy="408" r="5"/>
				</defs>
				<clipPath id="SVGID_88_">
					<use xlink:href="#SVGID_87_"  style="overflow:visible;"/>
				</clipPath>
				<g class="st19">
					<g>
						<defs>
							<rect id="SVGID_89_" x="-793.2" y="-2831" width="1440" height="6346"/>
						</defs>
						<clipPath id="SVGID_90_">
							<use xlink:href="#SVGID_89_"  style="overflow:visible;"/>
						</clipPath>
						<rect x="122.8" y="398" class="st20" width="20" height="20"/>
					</g>
				</g>
			</g>
		</g>
		<g>
			<path class="st16" d="M48.2,431.6h-0.8v-4.9h-1.1v-0.6h1.8L48.2,431.6L48.2,431.6z"/>
			<path class="st16" d="M53.7,431.6H50l-0.1-0.5l2-1.8c0.4-0.4,0.9-0.9,0.9-1.5s-0.4-1.1-1.1-1.1c-0.7,0-1.1,0.5-1.4,0.9l-0.4-0.5
				c0.2-0.3,0.7-1.1,1.8-1.1s1.8,0.6,1.8,1.6s-0.8,1.7-1.2,2l-1.4,1.4h2.8C53.7,431,53.7,431.6,53.7,431.6z"/>
			<path class="st16" d="M51.3,453c-0.4,0.4-0.9,0.7-1.6,0.7c-1,0-1.5-0.4-1.6-0.6l0.3-0.5c0.2,0.2,0.7,0.5,1.3,0.5
				c0.5,0,0.8-0.2,1-0.5c0.3-0.4,0.5-0.9,0.5-1.8c-0.2,0.4-0.6,0.8-1.5,0.8S48,451,48,449.9s0.7-1.9,1.9-1.9c1,0,1.5,0.6,1.7,1
				c0.2,0.3,0.4,0.9,0.4,1.8C51.9,451.7,51.6,452.5,51.3,453z M49.9,448.6c-0.8,0-1.1,0.6-1.1,1.2s0.4,1.2,1.1,1.2
				c0.8,0,1.2-0.6,1.2-1.2S50.6,448.6,49.9,448.6z"/>
			<path class="st16" d="M50.1,475.7c-1,0-1.5-0.7-1.7-1s-0.4-0.8-0.4-1.8s0.3-1.8,0.6-2.2c0.4-0.5,0.9-0.7,1.6-0.7
				c0.8,0,1.3,0.4,1.6,0.6l-0.3,0.5c-0.3-0.3-0.7-0.5-1.2-0.5s-0.8,0.2-1,0.5s-0.5,0.9-0.5,1.8c0.2-0.4,0.6-0.8,1.5-0.8
				s1.7,0.6,1.7,1.7C52,474.8,51.3,475.7,50.1,475.7z M50.1,472.7c-0.8,0-1.2,0.6-1.2,1.2s0.4,1.2,1.2,1.2s1.1-0.6,1.1-1.2
				C51.2,473.2,50.9,472.7,50.1,472.7z"/>
			<path class="st16" d="M49.9,497.7c-1.1,0-1.7-0.8-1.8-0.9l0.4-0.5c0.1,0.1,0.6,0.8,1.3,0.8s1.2-0.4,1.2-1c0-0.7-0.5-1-1.1-1h-0.4
				v-0.6h0.4c0.6,0,1-0.3,1-0.9s-0.5-0.9-1-0.9s-1,0.3-1.3,0.6l-0.4-0.5c0.4-0.4,0.8-0.8,1.7-0.8s1.7,0.5,1.7,1.4
				c0,0.8-0.6,1.1-0.9,1.2l0,0c0.4,0.1,1.1,0.5,1.1,1.4C51.8,497,51,497.7,49.9,497.7z"/>
			<path class="st16" d="M50,519.7c-1.5,0-2.1-1.4-2.1-2.8c0-1.4,0.6-2.8,2.1-2.8s2.1,1.4,2.1,2.8S51.5,519.7,50,519.7z M50,514.6
				c-0.9,0-1.3,0.9-1.3,2.2s0.4,2.2,1.3,2.2s1.3-0.9,1.3-2.2C51.3,515.6,50.9,514.6,50,514.6z"/>
		</g>
		<g>
			<path class="st1" d="M48.2,544.6h-1.4l-0.4-1.1h-2l-0.4,1.1h-1.3l2.1-5.5h1.3L48.2,544.6z M46.1,542.4l-0.7-2l-0.7,2H46.1z"/>
			<path class="st1" d="M54.9,544.6h-1.3l-0.2-3.8l0,0l-1.2,3.8h-1l-1.2-3.8l0,0l-0.2,3.8h-1.3l0.4-5.5h1.6l1.2,3.6l0,0l1.1-3.6h1.6
				L54.9,544.6z"/>
		</g>
		<g>
			<path class="st1" d="M491.4,540.5c-0.4,0.3-0.9,0.4-1.4,0.4h-0.7v2H488v-5.5h2c0.6,0,1.1,0.1,1.4,0.4c0.4,0.3,0.6,0.7,0.6,1.3
				S491.8,540.2,491.4,540.5z M490.4,538.6c-0.2-0.1-0.3-0.2-0.6-0.2h-0.5v1.5h0.5c0.3,0,0.5,0,0.6-0.2c0.2-0.1,0.3-0.3,0.3-0.6
				C490.7,538.9,490.5,538.7,490.4,538.6z"/>
			<path class="st1" d="M498.8,543h-1.3l-0.2-3.8l0,0l-1.2,3.8h-1l-1.2-3.8l0,0l-0.2,3.8h-1.3l0.4-5.5h1.6l1.2,3.6l0,0l1.1-3.6h1.6
				L498.8,543z"/>
		</g>
		<g>
			<path class="st16" d="M62.1,531.3h-0.8v-4.9h-1.1v-0.6H62L62.1,531.3L62.1,531.3z"/>
			<path class="st16" d="M67.6,531.3h-3.7l-0.1-0.5l2-1.8c0.4-0.4,0.9-0.9,0.9-1.5s-0.4-1.1-1.1-1.1s-1.1,0.5-1.4,0.9l-0.4-0.5
				c0.2-0.3,0.7-1.1,1.8-1.1c1.1,0,1.8,0.6,1.8,1.6s-0.8,1.7-1.2,2l-1.4,1.4h2.8L67.6,531.3L67.6,531.3z"/>
			<path class="st16" d="M104.2,531.3h-3.7l-0.1-0.5l2-1.8c0.4-0.4,0.9-0.9,0.9-1.5s-0.4-1.1-1.1-1.1s-1.1,0.5-1.4,0.9l-0.4-0.5
				c0.2-0.3,0.7-1.1,1.8-1.1c1.1,0,1.8,0.6,1.8,1.6s-0.8,1.7-1.2,2l-1.4,1.4h2.8L104.2,531.3L104.2,531.3z"/>
			<path class="st16" d="M142.5,530.1h-0.8v1.2h-0.8v-1.2h-2.8v-0.6l2.7-3.8h0.8v3.7h0.8v0.7H142.5z M140.9,529.5v-2.8l-2,2.8H140.9
				z"/>
			<path class="st16" d="M178.5,531.4c-1,0-1.5-0.7-1.7-1s-0.4-0.8-0.4-1.8s0.3-1.8,0.6-2.2c0.4-0.5,0.9-0.7,1.6-0.7
				c0.8,0,1.3,0.4,1.6,0.6l-0.3,0.5c-0.3-0.3-0.7-0.5-1.2-0.5s-0.8,0.2-1,0.5s-0.5,0.9-0.5,1.8c0.2-0.4,0.6-0.8,1.5-0.8
				s1.7,0.6,1.7,1.7C180.4,530.5,179.7,531.4,178.5,531.4z M178.5,528.4c-0.8,0-1.2,0.6-1.2,1.2c0,0.6,0.4,1.2,1.2,1.2
				s1.1-0.6,1.1-1.2C179.7,528.9,179.3,528.4,178.5,528.4z"/>
			<path class="st16" d="M216.5,531.4c-1.1,0-1.9-0.6-1.9-1.6c0-0.7,0.4-1.2,1-1.4l0,0c-0.4-0.1-0.9-0.4-0.9-1.2
				c0-0.9,0.8-1.4,1.7-1.4s1.7,0.5,1.7,1.4c0,0.8-0.5,1.1-0.9,1.2l0,0c0.6,0.2,1,0.7,1,1.4C218.4,530.8,217.6,531.4,216.5,531.4z
				 M216.5,528.7c-0.6,0-1.1,0.4-1.1,1s0.5,1,1.1,1s1.1-0.4,1.1-1S217.2,528.7,216.5,528.7z M216.5,526.3c-0.6,0-1,0.3-1,0.9
				c0,0.6,0.4,0.9,1,0.9s1-0.3,1-0.9S217.1,526.3,216.5,526.3z"/>
			<path class="st16" d="M254.6,531.3h-0.8v-4.9h-1.1v-0.6h1.8v5.5H254.6z"/>
			<path class="st16" d="M258.1,531.4c-1.5,0-2.1-1.4-2.1-2.8c0-1.4,0.6-2.8,2.1-2.8s2.1,1.4,2.1,2.8S259.6,531.4,258.1,531.4z
				 M258.1,526.4c-0.9,0-1.3,0.9-1.3,2.2s0.4,2.2,1.3,2.2s1.3-0.9,1.3-2.2C259.5,527.3,259,526.4,258.1,526.4z"/>
			<path class="st16" d="M296.2,531.3h-0.8v-4.9h-1.1v-0.6h1.8v5.5H296.2z"/>
			<path class="st16" d="M301.7,531.3H298l-0.1-0.5l2-1.8c0.4-0.4,0.9-0.9,0.9-1.5s-0.4-1.1-1.1-1.1s-1.1,0.5-1.4,0.9l-0.4-0.5
				c0.2-0.3,0.7-1.1,1.8-1.1c1.1,0,1.8,0.6,1.8,1.6s-0.8,1.7-1.2,2l-1.4,1.4h2.8L301.7,531.3L301.7,531.3z"/>
			<path class="st16" d="M339.8,531.3h-3.7l-0.1-0.5l2-1.8c0.4-0.4,0.9-0.9,0.9-1.5s-0.4-1.1-1.1-1.1s-1.1,0.5-1.4,0.9l-0.4-0.5
				c0.2-0.3,0.7-1.1,1.8-1.1c1.1,0,1.8,0.6,1.8,1.6s-0.8,1.7-1.2,2l-1.4,1.4h2.8L339.8,531.3L339.8,531.3z"/>
			<path class="st16" d="M378.2,530.1h-0.8v1.2h-0.8v-1.2h-2.8v-0.6l2.7-3.8h0.8v3.7h0.8L378.2,530.1L378.2,530.1z M376.6,529.5
				v-2.8l-2,2.8H376.6z"/>
			<path class="st16" d="M414.2,531.4c-1,0-1.5-0.7-1.7-1s-0.4-0.8-0.4-1.8s0.3-1.8,0.6-2.2c0.4-0.5,0.9-0.7,1.6-0.7
				c0.8,0,1.3,0.4,1.6,0.6l-0.3,0.5c-0.3-0.3-0.7-0.5-1.2-0.5s-0.8,0.2-1,0.5s-0.5,0.9-0.5,1.8c0.2-0.4,0.6-0.8,1.5-0.8
				s1.7,0.6,1.7,1.7C416.1,530.5,415.4,531.4,414.2,531.4z M414.2,528.4c-0.8,0-1.2,0.6-1.2,1.2c0,0.6,0.4,1.2,1.2,1.2
				c0.8,0,1.1-0.6,1.1-1.2C415.3,528.9,415,528.4,414.2,528.4z"/>
			<path class="st16" d="M452.2,531.4c-1.1,0-1.9-0.6-1.9-1.6c0-0.7,0.4-1.2,1-1.4l0,0c-0.4-0.1-0.9-0.4-0.9-1.2
				c0-0.9,0.8-1.4,1.7-1.4c0.9,0,1.7,0.5,1.7,1.4c0,0.8-0.5,1.1-0.9,1.2l0,0c0.6,0.2,1,0.7,1,1.4
				C454.1,530.8,453.3,531.4,452.2,531.4z M452.2,528.7c-0.6,0-1.1,0.4-1.1,1s0.5,1,1.1,1s1.1-0.4,1.1-1S452.9,528.7,452.2,528.7z
				 M452.2,526.3c-0.6,0-1,0.3-1,0.9c0,0.6,0.4,0.9,1,0.9s1-0.3,1-0.9S452.8,526.3,452.2,526.3z"/>
			<path class="st16" d="M490.3,531.3h-0.8v-4.9h-1.1v-0.6h1.8v5.5H490.3z"/>
			<path class="st16" d="M493.8,531.4c-1.5,0-2.1-1.4-2.1-2.8c0-1.4,0.6-2.8,2.1-2.8s2.1,1.4,2.1,2.8S495.3,531.4,493.8,531.4z
				 M493.8,526.4c-0.9,0-1.3,0.9-1.3,2.2s0.4,2.2,1.3,2.2s1.3-0.9,1.3-2.2C495.1,527.3,494.7,526.4,493.8,526.4z"/>
		</g>
		<path class="st2" d="M482.1,543.1H61.5c-0.6,0-1.2-0.5-1.2-1.2v-0.2c0-0.6,0.5-1.2,1.2-1.2h420.7c0.6,0,1.2,0.5,1.2,1.2v0.2
			C483.3,542.6,482.8,543.1,482.1,543.1z"/>
		<g>
			<g>
				<line class="st21" x1="59.1" y1="450.1" x2="60.1" y2="450.1"/>
				<line class="st22" x1="62.1" y1="450.1" x2="491.3" y2="450.1"/>
				<line class="st21" x1="492.3" y1="450.1" x2="493.3" y2="450.1"/>
			</g>
		</g>
		<g>
			<g>
				<line class="st21" x1="82.9" y1="518.2" x2="82.9" y2="517.2"/>
				<line class="st23" x1="82.9" y1="515.3" x2="82.9" y2="430"/>
				<line class="st21" x1="82.9" y1="429" x2="82.9" y2="428"/>
			</g>
		</g>
		<g>
			<g>
				<line class="st21" x1="102.2" y1="518.2" x2="102.2" y2="517.2"/>
				<line class="st23" x1="102.2" y1="515.3" x2="102.2" y2="430"/>
				<line class="st21" x1="102.2" y1="429.1" x2="102.2" y2="428.1"/>
			</g>
		</g>
		<g>
			<g>
				<line class="st21" x1="141" y1="518.2" x2="141" y2="517.2"/>
				<line class="st23" x1="141" y1="515.3" x2="141" y2="430"/>
				<line class="st21" x1="141" y1="429" x2="141" y2="428"/>
			</g>
		</g>
		<g>
			<g>
				<line class="st21" x1="179.8" y1="518.2" x2="179.8" y2="517.2"/>
				<line class="st23" x1="179.8" y1="515.3" x2="179.8" y2="430"/>
				<line class="st21" x1="179.8" y1="429" x2="179.8" y2="428"/>
			</g>
		</g>
		<g>
			<g>
				<line class="st21" x1="218.5" y1="518.2" x2="218.5" y2="517.2"/>
				<line class="st23" x1="218.5" y1="515.3" x2="218.5" y2="430"/>
				<line class="st21" x1="218.5" y1="429" x2="218.5" y2="428"/>
			</g>
		</g>
		<g>
			<g>
				<line class="st21" x1="257.3" y1="518.2" x2="257.3" y2="517.2"/>
				<line class="st23" x1="257.3" y1="515.3" x2="257.3" y2="430"/>
				<line class="st21" x1="257.3" y1="429" x2="257.3" y2="428"/>
			</g>
		</g>
		<g>
			<g>
				<line class="st21" x1="121.6" y1="518.2" x2="121.6" y2="517.2"/>
				<line class="st23" x1="121.6" y1="515.3" x2="121.6" y2="430"/>
				<line class="st21" x1="121.6" y1="429" x2="121.6" y2="428"/>
			</g>
		</g>
		<g>
			<g>
				<line class="st21" x1="160.4" y1="518.2" x2="160.4" y2="517.2"/>
				<line class="st23" x1="160.4" y1="515.3" x2="160.4" y2="430"/>
				<line class="st21" x1="160.4" y1="429" x2="160.4" y2="428"/>
			</g>
		</g>
		<g>
			<g>
				<line class="st21" x1="199.2" y1="518.2" x2="199.2" y2="517.2"/>
				<line class="st23" x1="199.2" y1="515.3" x2="199.2" y2="430"/>
				<line class="st21" x1="199.2" y1="429" x2="199.2" y2="428"/>
			</g>
		</g>
		<g>
			<g>
				<line class="st21" x1="237.9" y1="518.2" x2="237.9" y2="517.2"/>
				<line class="st23" x1="237.9" y1="515.3" x2="237.9" y2="430"/>
				<line class="st21" x1="237.9" y1="429" x2="237.9" y2="428"/>
			</g>
		</g>
		<g>
			<g>
				<line class="st21" x1="296.1" y1="518.2" x2="296.1" y2="517.2"/>
				<line class="st23" x1="296.1" y1="515.3" x2="296.1" y2="430"/>
				<line class="st21" x1="296.1" y1="429" x2="296.1" y2="428"/>
			</g>
		</g>
		<g>
			<g>
				<line class="st21" x1="278" y1="518.1" x2="278" y2="517.1"/>
				<line class="st23" x1="278" y1="515.2" x2="278" y2="429.9"/>
				<line class="st21" x1="278" y1="429" x2="278" y2="428"/>
			</g>
		</g>
		<g>
			<g>
				<line class="st21" x1="334.8" y1="518.2" x2="334.8" y2="517.2"/>
				<line class="st23" x1="334.8" y1="515.3" x2="334.8" y2="430"/>
				<line class="st21" x1="334.8" y1="429" x2="334.8" y2="428"/>
			</g>
		</g>
		<g>
			<g>
				<line class="st21" x1="373.6" y1="518.2" x2="373.6" y2="517.2"/>
				<line class="st23" x1="373.6" y1="515.3" x2="373.6" y2="430"/>
				<line class="st21" x1="373.6" y1="429" x2="373.6" y2="428"/>
			</g>
		</g>
		<g>
			<g>
				<line class="st21" x1="412.4" y1="518.2" x2="412.4" y2="517.2"/>
				<line class="st23" x1="412.4" y1="515.3" x2="412.4" y2="430"/>
				<line class="st21" x1="412.4" y1="429" x2="412.4" y2="428"/>
			</g>
		</g>
		<g>
			<g>
				<line class="st21" x1="451.1" y1="518.2" x2="451.1" y2="517.2"/>
				<line class="st23" x1="451.1" y1="515.3" x2="451.1" y2="430"/>
				<line class="st21" x1="451.1" y1="429" x2="451.1" y2="428"/>
			</g>
		</g>
		<g>
			<g>
				<line class="st21" x1="491.1" y1="518.2" x2="491.1" y2="517.2"/>
				<line class="st23" x1="491.1" y1="515.3" x2="491.1" y2="430"/>
				<line class="st21" x1="491.1" y1="429" x2="491.1" y2="428"/>
			</g>
		</g>
		<g>
			<g>
				<line class="st21" x1="315.4" y1="518.2" x2="315.4" y2="517.2"/>
				<line class="st23" x1="315.4" y1="515.3" x2="315.4" y2="430"/>
				<line class="st21" x1="315.4" y1="429" x2="315.4" y2="428"/>
			</g>
		</g>
		<g>
			<g>
				<line class="st21" x1="354.2" y1="518.2" x2="354.2" y2="517.2"/>
				<line class="st23" x1="354.2" y1="515.3" x2="354.2" y2="430"/>
				<line class="st21" x1="354.2" y1="429" x2="354.2" y2="428"/>
			</g>
		</g>
		<g>
			<g>
				<line class="st21" x1="393" y1="518.2" x2="393" y2="517.2"/>
				<line class="st23" x1="393" y1="515.3" x2="393" y2="430"/>
				<line class="st21" x1="393" y1="429" x2="393" y2="428"/>
			</g>
		</g>
		<g>
			<g>
				<line class="st21" x1="431.7" y1="518.2" x2="431.7" y2="517.2"/>
				<line class="st23" x1="431.7" y1="515.3" x2="431.7" y2="430"/>
				<line class="st21" x1="431.7" y1="429" x2="431.7" y2="428"/>
			</g>
		</g>
		<g>
			<g>
				<line class="st21" x1="470.5" y1="518.2" x2="470.5" y2="517.2"/>
				<line class="st23" x1="470.5" y1="515.3" x2="470.5" y2="430"/>
				<line class="st21" x1="470.5" y1="429" x2="470.5" y2="428"/>
			</g>
		</g>
		<g>
			<g>
				<line class="st21" x1="59.1" y1="473.2" x2="60.1" y2="473.2"/>
				<line class="st22" x1="62.1" y1="473.2" x2="491.3" y2="473.2"/>
				<line class="st21" x1="492.3" y1="473.2" x2="493.3" y2="473.2"/>
			</g>
		</g>
		<g>
			<g>
				<line class="st21" x1="59.1" y1="495.3" x2="60.1" y2="495.3"/>
				<line class="st22" x1="62.1" y1="495.3" x2="491.3" y2="495.3"/>
				<line class="st21" x1="492.3" y1="495.3" x2="493.3" y2="495.3"/>
			</g>
		</g>
		<polygon class="st24" points="62.7,518.2 62.7,514 82.9,514 102.2,508.7 121.6,506.1 141,506.1 160.4,506.1 179.8,503.4 
			199.2,503.4 218.5,495.3 244,499.5 260.9,518.2 304.6,518.2 312.9,516.2 323,516.2 331.3,518.2 347.6,518.2 361.2,518.2 
			407.3,518.2 412.4,511.8 431.7,511.8 442.4,513.5 456,513.1 476.7,510 493.3,518.2 		"/>
		<path class="st25" d="M240,518.2c0,0,15-81.1,20.9-84.2c0,0,13.4-14,20.4,0c0,0,8.5,23.7,18.5,21.5c0,0,7-10.1,11.3-11l34.2-2.2
			c0,0,14.5,6.6,17.6,14.9c0,0,28.2,7.8,34.7,7.3c3.1-0.2,16.2-3.3,22.4-2.9c0,0,35.6,10.5,39.5,13.6c0,0,4.4,39.2,11,42.9
			L240,518.2z"/>
	</g>
	<g id="Ratings">
		<g>
			<g>
				
					<image style="overflow:visible;opacity:0.2;" width="543" height="199" xlink:href="/img/views/index/benefits/6D8A938EC75FF367.png"  transform="matrix(1 0 0 1 0 17.2)">
				</image>
				<g>
					<g>
						<path class="st0" d="M505.6,189.8H28c-6.2,0-11.2-5-11.2-11.2V44.9c0-6.2,5-11.2,11.2-11.2h477.6c6.2,0,11.2,5,11.2,11.2
							v133.7C516.8,184.8,511.8,189.8,505.6,189.8z"/>
					</g>
				</g>
			</g>
		</g>
		<path class="st26" d="M250.9,65.3H49.7c-7.1,0-12.9,5.8-12.9,12.9v81.2c0,7.1,5.8,12.9,12.9,12.9h201.2c7.1,0,12.9-5.8,12.9-12.9
			V78.2C263.8,71.1,258,65.3,250.9,65.3z"/>
		<path class="st27" d="M488,65.3H286.8c-7.1,0-12.9,5.8-12.9,12.9v81.2c0,7.1,5.8,12.9,12.9,12.9H488c7.1,0,12.9-5.8,12.9-12.9
			V78.2C500.9,71.1,495.1,65.3,488,65.3z"/>
		<g>
			<g>
				<defs>
					<polygon id="SVGID_91_" points="167.3,124.8 168.7,127.4 171.8,127.9 169.6,129.9 170.1,132.8 167.3,131.4 164.5,132.8 
						165.1,129.9 162.8,127.9 165.9,127.4 					"/>
				</defs>
				<clipPath id="SVGID_92_">
					<use xlink:href="#SVGID_91_"  style="overflow:visible;"/>
				</clipPath>
				<g class="st28">
					<g>
						<defs>
							<rect id="SVGID_93_" x="-762.2" y="-2836" width="1440" height="6346"/>
						</defs>
						<clipPath id="SVGID_94_">
							<use xlink:href="#SVGID_93_"  style="overflow:visible;"/>
						</clipPath>
						<rect x="157.8" y="119.8" class="st29" width="19" height="18"/>
					</g>
				</g>
			</g>
		</g>
		<g>
			<g>
				<defs>
					<polygon id="SVGID_95_" points="435.3,123.8 436.7,126.4 439.8,126.9 437.6,128.9 438.1,131.8 435.3,130.4 432.5,131.8 
						433.1,128.9 430.8,126.9 433.9,126.4 					"/>
				</defs>
				<clipPath id="SVGID_96_">
					<use xlink:href="#SVGID_95_"  style="overflow:visible;"/>
				</clipPath>
				<g class="st30">
					<g>
						<defs>
							<rect id="SVGID_97_" x="-776.2" y="-2836" width="1440" height="6346"/>
						</defs>
						<clipPath id="SVGID_98_">
							<use xlink:href="#SVGID_97_"  style="overflow:visible;"/>
						</clipPath>
						<rect x="425.8" y="118.8" class="st31" width="19" height="18"/>
					</g>
				</g>
			</g>
		</g>
		<g>
			<path class="st1" d="M160.3,130.8h-0.8v1.2H158v-1.2h-3v-1.1l2.8-3.9h1.6v3.9h0.8L160.3,130.8L160.3,130.8z M158.1,129.7v-2.4
				l-1.7,2.4H158.1z"/>
			<path class="st1" d="M177.3,132.1c-1.4,0-2.5-0.9-2.5-2.3c0-1.4,1.1-2.3,2.5-2.3s2.5,0.9,2.5,2.3
				C179.8,131.2,178.7,132.1,177.3,132.1z M177.3,128.6c-0.6,0-1,0.5-1,1.2s0.4,1.2,1,1.2s1-0.5,1-1.2S178,128.6,177.3,128.6z"/>
			<path class="st1" d="M183.4,128.9L183.4,128.9c-0.1,0-0.3-0.1-0.6-0.1s-0.6,0.2-0.7,0.3c-0.1,0.1-0.2,0.4-0.2,0.9v2h-1.4v-4.4
				h1.4v0.6l0,0c0.3-0.5,0.6-0.7,1.1-0.7c0.3,0,0.5,0.1,0.5,0.1L183.4,128.9z"/>
			<path class="st1" d="M188.6,132.1c-0.6,0-1.1-0.2-1.5-0.7l0,0v0.6h-1.4v-6.2h1.4v1.5c0,0.4,0,0.8,0,0.8l0,0
				c0.2-0.3,0.6-0.6,1.4-0.6c1.3,0,2.1,1,2.1,2.3S189.9,132.1,188.6,132.1z M188.2,128.6c-0.6,0-1,0.5-1,1.2s0.4,1.2,1,1.2
				s1-0.5,1-1.2S188.8,128.6,188.2,128.6z"/>
			<path class="st1" d="M195.7,130.1h-3.2c0.1,0.6,0.5,0.9,1.1,0.9s1.1-0.3,1.3-0.4l0.6,0.7c-0.1,0.1-0.7,0.7-2.1,0.7
				c-1.4,0-2.4-0.8-2.4-2.3s1.1-2.3,2.4-2.3s2.2,0.9,2.2,2.2C195.8,129.9,195.7,130.1,195.7,130.1z M194.4,129.3
				c0-0.4-0.3-0.9-0.9-0.9c-0.6,0-0.9,0.5-0.9,0.9H194.4z"/>
			<path class="st1" d="M199.1,128.7h-1v1.6c0,0.4,0.1,0.5,0.1,0.5c0.1,0.1,0.2,0.1,0.3,0.1c0.2,0,0.4-0.1,0.4-0.1l0.1,1.1
				c-0.1,0-0.5,0.1-1,0.1s-0.9-0.2-1.1-0.4c-0.2-0.3-0.3-0.6-0.3-1.3v-1.7H196v-1.1h0.6v-1.2h1.4v1.2h1v1.2H199.1z"/>
			<path class="st1" d="M202.3,128.7h-1v1.6c0,0.4,0.1,0.5,0.1,0.5c0.1,0.1,0.2,0.1,0.3,0.1c0.2,0,0.4-0.1,0.4-0.1l0.1,1.1
				c-0.1,0-0.5,0.1-1,0.1s-0.9-0.2-1.1-0.4c-0.2-0.3-0.3-0.6-0.3-1.3v-1.7h-0.6v-1.1h0.6v-1.2h1.4v1.2h1v1.2H202.3z"/>
			<path class="st1" d="M207.2,130.1H204c0.1,0.6,0.5,0.9,1.1,0.9s1.1-0.3,1.3-0.4l0.6,0.7c-0.1,0.1-0.7,0.7-2.1,0.7
				c-1.4,0-2.4-0.8-2.4-2.3s1.1-2.3,2.4-2.3s2.2,0.9,2.2,2.2C207.2,129.9,207.2,130.1,207.2,130.1z M205.9,129.3
				c0-0.4-0.3-0.9-0.9-0.9c-0.6,0-0.9,0.5-0.9,0.9H205.9z"/>
			<path class="st1" d="M210.8,128.9L210.8,128.9c-0.1,0-0.3-0.1-0.6-0.1s-0.6,0.2-0.7,0.3c-0.1,0.1-0.2,0.4-0.2,0.9v2h-1.4v-4.4
				h1.4v0.6l0,0c0.3-0.5,0.6-0.7,1.1-0.7c0.3,0,0.5,0.1,0.5,0.1L210.8,128.9z"/>
		</g>
		<g>
			<path class="st1" d="M385.8,132h-1.4v-6.2h1.4V132z"/>
			<path class="st1" d="M391.1,130.1h-3.2c0.1,0.6,0.5,0.9,1.1,0.9s1.1-0.3,1.3-0.4l0.6,0.7c-0.1,0.1-0.7,0.7-2.1,0.7
				s-2.4-0.8-2.4-2.3s1.1-2.3,2.4-2.3s2.2,0.9,2.2,2.2C391.1,129.9,391.1,130.1,391.1,130.1z M389.8,129.3c0-0.4-0.3-0.9-0.9-0.9
				s-0.9,0.5-0.9,0.9H389.8z"/>
			<path class="st1" d="M394.6,131.7c-0.3,0.3-0.8,0.4-1.4,0.4c-0.7,0-1.4-0.2-1.9-0.7l0.5-0.9c0.4,0.3,1,0.5,1.3,0.5
				c0.4,0,0.6-0.1,0.6-0.4s-0.6-0.4-0.8-0.5c-0.2,0-0.4-0.1-0.6-0.2s-0.8-0.4-0.8-1.2c0-0.9,0.8-1.4,1.7-1.4s1.4,0.3,1.7,0.5
				l-0.5,0.8c-0.3-0.2-0.8-0.4-1.1-0.4c-0.3,0-0.5,0.1-0.5,0.3s0.3,0.3,0.6,0.4c0.3,0.1,0.4,0.1,0.6,0.2c0.2,0.1,0.4,0.2,0.6,0.3
				c0.1,0.1,0.4,0.4,0.4,0.9C395.2,131.1,395,131.5,394.6,131.7z"/>
			<path class="st1" d="M398.7,131.7c-0.3,0.3-0.8,0.4-1.4,0.4c-0.7,0-1.4-0.2-1.9-0.7l0.5-0.9c0.4,0.3,1,0.5,1.3,0.5
				c0.4,0,0.6-0.1,0.6-0.4s-0.6-0.4-0.8-0.5c-0.2,0-0.4-0.1-0.6-0.2s-0.8-0.4-0.8-1.2c0-0.9,0.8-1.4,1.7-1.4s1.4,0.3,1.7,0.5
				l-0.5,0.8c-0.3-0.2-0.8-0.4-1.1-0.4c-0.3,0-0.5,0.1-0.5,0.3s0.3,0.3,0.6,0.4c0.3,0.1,0.4,0.1,0.6,0.2c0.2,0.1,0.4,0.2,0.6,0.3
				c0.1,0.1,0.4,0.4,0.4,0.9C399.2,131.1,399,131.5,398.7,131.7z"/>
			<path class="st1" d="M404.3,128.7h-1v1.6c0,0.4,0.1,0.5,0.1,0.5c0.1,0.1,0.2,0.1,0.3,0.1c0.2,0,0.4-0.1,0.4-0.1l0.1,1.1
				c-0.1,0-0.5,0.1-1,0.1s-0.9-0.2-1.1-0.4c-0.2-0.3-0.3-0.6-0.3-1.3v-1.7h-0.6v-1.1h0.6v-1.2h1.4v1.2h1v1.2H404.3z"/>
			<path class="st1" d="M409.3,132h-1.4v-2.3c0-0.5-0.1-1-0.7-1s-0.8,0.5-0.8,1.2v2.2H405v-6.2h1.4v1.5c0,0.5,0,0.9,0,0.9
				c0.2-0.4,0.6-0.7,1.3-0.7c1.3,0,1.6,0.8,1.6,1.9V132z"/>
			<path class="st1" d="M414.2,132h-1.4v-0.5c-0.2,0.2-0.5,0.6-1.3,0.6s-1.6-0.4-1.6-1.4s0.9-1.3,1.7-1.4h1.1v-0.1
				c0-0.5-0.3-0.7-0.9-0.7s-1.1,0.3-1.4,0.4L410,128c0.4-0.2,1.1-0.5,1.9-0.5s1.3,0.2,1.7,0.5c0.3,0.3,0.5,0.8,0.5,1.5L414.2,132
				L414.2,132z M412.7,130H412c-0.4,0-0.7,0.2-0.7,0.5s0.3,0.5,0.7,0.5c0.4,0,0.6-0.3,0.7-0.4V130z"/>
			<path class="st1" d="M419.4,132H418v-2.3c0-0.6-0.1-1-0.7-1s-0.8,0.5-0.8,1.1v2.2h-1.4v-4.4h1.4v0.6l0,0c0.2-0.4,0.6-0.7,1.3-0.7
				c1.3,0,1.6,0.8,1.6,1.9V132z"/>
			<path class="st1" d="M427.1,130.8h-0.8v1.2h-1.4v-1.2h-3v-1.1l2.8-3.9h1.6v3.9h0.8V130.8z M424.9,129.7v-2.4l-1.7,2.4H424.9z"/>
		</g>
		<g>
			<path class="st32" d="M158.2,142.7c-0.3,0.3-0.8,0.4-1.4,0.4c-1,0-1.5-0.6-1.8-0.9l0.5-0.5c0.3,0.4,0.8,0.8,1.4,0.8
				s1.1-0.3,1.1-0.9c0-0.6-0.6-0.8-0.9-0.9c-0.3-0.1-0.7-0.3-0.9-0.4c-0.1-0.1-0.4-0.2-0.6-0.4c-0.2-0.2-0.4-0.5-0.4-1
				c0-0.4,0.2-0.8,0.5-1.1s0.7-0.4,1.3-0.4c0.9,0,1.4,0.6,1.6,0.7l-0.4,0.5c-0.3-0.3-0.7-0.6-1.2-0.6s-1,0.3-1,0.8s0.4,0.7,0.7,0.8
				l1,0.4c0.1,0,0.4,0.2,0.6,0.4c0.2,0.2,0.3,0.5,0.3,0.9C158.8,141.9,158.6,142.4,158.2,142.7z"/>
			<path class="st32" d="M163.1,141.3h-2.9c0,0.8,0.5,1.2,1.2,1.2s1.2-0.4,1.3-0.4l0.3,0.4c0,0-0.5,0.6-1.7,0.6
				c-1.1,0-1.9-0.8-1.9-2s0.9-2,1.9-2c1.1,0,1.8,0.8,1.8,1.8C163.1,141.1,163.1,141.3,163.1,141.3z M162.4,140.8
				c0-0.4-0.3-1.1-1.1-1.1s-1.1,0.6-1.1,1.1H162.4z"/>
			<path class="st32" d="M167.3,141.3h-2.9c0,0.8,0.5,1.2,1.2,1.2s1.2-0.4,1.3-0.4l0.3,0.4c0,0-0.5,0.6-1.7,0.6
				c-1.1,0-1.9-0.8-1.9-2s0.9-2,1.9-2c1.1,0,1.8,0.8,1.8,1.8C167.3,141.1,167.3,141.3,167.3,141.3z M166.6,140.8
				c0-0.4-0.3-1.1-1.1-1.1s-1.1,0.6-1.1,1.1H166.6z"/>
			<path class="st32" d="M171.5,143c0,0-0.3,0.1-0.7,0.1s-0.6-0.2-0.8-0.4s-0.2-0.5-0.2-1.1v-1.7h-0.6v-0.6h0.6v-1.1h0.8v1.1h0.9
				v0.6h-0.9v1.7c0,0.3,0,0.5,0.1,0.7c0.1,0.1,0.2,0.2,0.4,0.2s0.4-0.1,0.4-0.1V143z"/>
			<path class="st32" d="M174.2,139.9L174.2,139.9c-0.1,0-0.2-0.1-0.4-0.1c-0.3,0-0.5,0.2-0.6,0.3s-0.2,0.4-0.2,1v1.9h-0.8v-3.8h0.8
				v0.6l0,0c0.2-0.4,0.5-0.7,0.9-0.7c0.3,0,0.4,0.1,0.4,0.1L174.2,139.9z"/>
			<path class="st32" d="M177.8,143h-0.7v-0.5c-0.2,0.2-0.5,0.6-1.2,0.6s-1.3-0.4-1.3-1.2c0-0.7,0.6-1.1,1.5-1.2h1v-0.2
				c0-0.6-0.4-0.9-0.9-0.9s-1,0.2-1.1,0.3l-0.2-0.5c0.3-0.2,0.8-0.4,1.4-0.4s1,0.2,1.3,0.4c0.3,0.3,0.4,0.6,0.4,1.2v2.4H177.8z
				 M177,141.2l-0.9,0.1c-0.6,0-0.9,0.3-0.9,0.7s0.3,0.7,0.8,0.7s0.8-0.3,1-0.6L177,141.2L177,141.2z"/>
			<path class="st32" d="M182.1,143h-0.8v-2.1c0-0.6-0.1-1.1-0.8-1.1s-1,0.6-1,1.3v1.9h-0.8v-3.8h0.8v0.6l0,0
				c0.2-0.4,0.6-0.7,1.2-0.7c1.1,0,1.4,0.7,1.4,1.6L182.1,143L182.1,143z"/>
			<path class="st32" d="M185.3,142.8c-0.3,0.2-0.6,0.3-1.1,0.3c-0.6,0-1.2-0.3-1.5-0.7l0.4-0.4c0.3,0.4,0.8,0.5,1.1,0.5
				c0.4,0,0.7-0.1,0.7-0.5s-0.6-0.5-0.9-0.6s-0.3-0.1-0.5-0.2c-0.2-0.1-0.6-0.4-0.6-0.9c0-0.7,0.6-1.1,1.3-1.1s1.1,0.2,1.3,0.5
				l-0.3,0.5c-0.2-0.2-0.6-0.4-1-0.4s-0.6,0.2-0.6,0.5s0.4,0.4,0.7,0.6c0.2,0.1,0.4,0.1,0.5,0.2c0.2,0.1,0.3,0.2,0.4,0.3
				c0.1,0.1,0.3,0.4,0.3,0.7C185.7,142.3,185.5,142.5,185.3,142.8z"/>
			<path class="st32" d="M189.6,142.5c-0.1,0.1-0.5,0.6-1.5,0.6s-1.9-0.8-1.9-2s0.9-2,1.9-2s1.4,0.5,1.5,0.5l-0.3,0.6
				c-0.1-0.1-0.5-0.5-1.1-0.5c-0.7,0-1.2,0.5-1.2,1.3s0.5,1.4,1.2,1.4s1.2-0.5,1.2-0.5L189.6,142.5z"/>
			<path class="st32" d="M192.3,139.9L192.3,139.9c-0.1,0-0.2-0.1-0.4-0.1c-0.3,0-0.5,0.2-0.6,0.3s-0.2,0.4-0.2,1v1.9h-0.8v-3.8h0.8
				v0.6l0,0c0.2-0.4,0.5-0.7,0.9-0.7c0.3,0,0.4,0.1,0.4,0.1L192.3,139.9z"/>
			<path class="st32" d="M193.3,138.4c-0.3,0-0.5-0.2-0.5-0.5s0.2-0.5,0.5-0.5s0.5,0.2,0.5,0.5S193.6,138.4,193.3,138.4z M193.7,143
				h-0.8v-3.8h0.8V143z"/>
			<path class="st32" d="M196.9,143.1c-0.6,0-1-0.3-1.3-0.7l0,0v2.1h-0.8v-5.3h0.7v0.6l0,0c0.3-0.4,0.8-0.7,1.4-0.7
				c1.1,0,1.8,0.8,1.8,2C198.8,142.2,198,143.1,196.9,143.1z M196.8,139.8c-0.8,0-1.2,0.6-1.2,1.3s0.4,1.3,1.2,1.3s1.2-0.6,1.2-1.3
				S197.5,139.8,196.8,139.8z"/>
			<path class="st32" d="M201.4,143c0,0-0.3,0.1-0.7,0.1s-0.6-0.2-0.8-0.4s-0.2-0.5-0.2-1.1v-1.7h-0.6v-0.6h0.6v-1.1h0.8v1.1h0.9
				v0.6h-0.9v1.7c0,0.3,0,0.5,0.1,0.7c0.1,0.1,0.2,0.2,0.4,0.2s0.4-0.1,0.4-0.1V143z"/>
			<path class="st32" d="M204.2,142.8c-0.3,0.2-0.6,0.3-1.1,0.3c-0.6,0-1.2-0.3-1.5-0.7l0.4-0.4c0.3,0.4,0.8,0.5,1.1,0.5
				c0.4,0,0.7-0.1,0.7-0.5s-0.6-0.5-0.9-0.6s-0.3-0.1-0.5-0.2c-0.2-0.1-0.6-0.4-0.6-0.9c0-0.7,0.6-1.1,1.3-1.1s1.1,0.2,1.3,0.5
				l-0.3,0.5c-0.2-0.2-0.6-0.4-1-0.4s-0.6,0.2-0.6,0.5s0.4,0.4,0.7,0.6c0.2,0.1,0.4,0.1,0.5,0.2c0.2,0.1,0.3,0.2,0.4,0.3
				c0.1,0.1,0.3,0.4,0.3,0.7C204.6,142.3,204.5,142.5,204.2,142.8z"/>
		</g>
		<g>
			<path class="st32" d="M387.2,142.7c-0.3,0.3-0.8,0.4-1.4,0.4c-1,0-1.5-0.6-1.8-0.9l0.5-0.5c0.3,0.4,0.8,0.8,1.4,0.8
				s1.1-0.3,1.1-0.9c0-0.6-0.6-0.8-0.9-0.9c-0.3-0.1-0.7-0.3-0.9-0.4c-0.1-0.1-0.4-0.2-0.6-0.4s-0.4-0.5-0.4-1
				c0-0.4,0.2-0.8,0.5-1.1s0.7-0.4,1.3-0.4c0.9,0,1.4,0.6,1.6,0.7l-0.4,0.5c-0.3-0.3-0.7-0.6-1.2-0.6s-1,0.3-1,0.8s0.4,0.7,0.7,0.8
				l1,0.4c0.1,0,0.4,0.2,0.6,0.4s0.3,0.5,0.3,0.9C387.8,141.9,387.6,142.4,387.2,142.7z"/>
			<path class="st32" d="M392.1,141.3h-2.9c0,0.8,0.5,1.2,1.2,1.2s1.2-0.4,1.3-0.4l0.3,0.4c0,0-0.5,0.6-1.7,0.6
				c-1.1,0-1.9-0.8-1.9-2s0.9-2,1.9-2c1.1,0,1.8,0.8,1.8,1.8C392.1,141.1,392.1,141.3,392.1,141.3z M391.4,140.8
				c0-0.4-0.3-1.1-1.1-1.1c-0.8,0-1.1,0.6-1.1,1.1H391.4z"/>
			<path class="st32" d="M396.3,141.3h-2.9c0,0.8,0.5,1.2,1.2,1.2s1.2-0.4,1.3-0.4l0.3,0.4c0,0-0.5,0.6-1.7,0.6
				c-1.1,0-1.9-0.8-1.9-2s0.9-2,1.9-2c1.1,0,1.8,0.8,1.8,1.8C396.3,141.1,396.3,141.3,396.3,141.3z M395.6,140.8
				c0-0.4-0.3-1.1-1.1-1.1c-0.8,0-1.1,0.6-1.1,1.1H395.6z"/>
			<path class="st32" d="M400.5,143c0,0-0.3,0.1-0.7,0.1c-0.4,0-0.6-0.2-0.8-0.4c-0.2-0.2-0.2-0.5-0.2-1.1v-1.7h-0.6v-0.6h0.6v-1.1
				h0.8v1.1h0.9v0.6h-0.9v1.7c0,0.3,0,0.5,0.1,0.7c0.1,0.1,0.2,0.2,0.4,0.2c0.2,0,0.4-0.1,0.4-0.1L400.5,143z"/>
			<path class="st32" d="M403.2,139.9L403.2,139.9c-0.1,0-0.2-0.1-0.4-0.1c-0.3,0-0.5,0.2-0.6,0.3s-0.2,0.4-0.2,1v1.9h-0.8v-3.8h0.8
				v0.6l0,0c0.2-0.4,0.5-0.7,0.9-0.7c0.3,0,0.4,0.1,0.4,0.1L403.2,139.9z"/>
			<path class="st32" d="M406.8,143h-0.7v-0.5c-0.2,0.2-0.5,0.6-1.2,0.6s-1.3-0.4-1.3-1.2c0-0.7,0.6-1.1,1.5-1.2h1v-0.2
				c0-0.6-0.4-0.9-0.9-0.9s-1,0.2-1.1,0.3l-0.2-0.5c0.3-0.2,0.8-0.4,1.4-0.4s1,0.2,1.3,0.4c0.3,0.3,0.4,0.6,0.4,1.2v2.4H406.8z
				 M406,141.2l-0.9,0.1c-0.6,0-0.9,0.3-0.9,0.7s0.3,0.7,0.8,0.7s0.8-0.3,1-0.6V141.2z"/>
			<path class="st32" d="M411.1,143h-0.8v-2.1c0-0.6-0.1-1.1-0.8-1.1c-0.7,0-1,0.6-1,1.3v1.9h-0.8v-3.8h0.8v0.6l0,0
				c0.2-0.4,0.6-0.7,1.2-0.7c1.1,0,1.4,0.7,1.4,1.6L411.1,143L411.1,143z"/>
			<path class="st32" d="M414.3,142.8c-0.3,0.2-0.6,0.3-1.1,0.3c-0.6,0-1.2-0.3-1.5-0.7l0.4-0.4c0.3,0.4,0.8,0.5,1.1,0.5
				c0.4,0,0.7-0.1,0.7-0.5s-0.6-0.5-0.9-0.6s-0.3-0.1-0.5-0.2c-0.2-0.1-0.6-0.4-0.6-0.9c0-0.7,0.6-1.1,1.3-1.1
				c0.7,0,1.1,0.2,1.3,0.5l-0.3,0.5c-0.2-0.2-0.6-0.4-1-0.4s-0.6,0.2-0.6,0.5s0.4,0.4,0.7,0.6c0.2,0.1,0.4,0.1,0.5,0.2
				c0.2,0.1,0.3,0.2,0.4,0.3s0.3,0.4,0.3,0.7C414.7,142.3,414.5,142.5,414.3,142.8z"/>
			<path class="st32" d="M418.6,142.5c-0.1,0.1-0.5,0.6-1.5,0.6s-1.9-0.8-1.9-2s0.9-2,1.9-2s1.4,0.5,1.5,0.5l-0.3,0.6
				c-0.1-0.1-0.5-0.5-1.1-0.5c-0.7,0-1.2,0.5-1.2,1.3s0.5,1.4,1.2,1.4s1.2-0.5,1.2-0.5L418.6,142.5z"/>
			<path class="st32" d="M421.3,139.9L421.3,139.9c-0.1,0-0.2-0.1-0.4-0.1c-0.3,0-0.5,0.2-0.6,0.3s-0.2,0.4-0.2,1v1.9h-0.8v-3.8h0.8
				v0.6l0,0c0.2-0.4,0.5-0.7,0.9-0.7c0.3,0,0.4,0.1,0.4,0.1L421.3,139.9z"/>
			<path class="st32" d="M422.3,138.4c-0.3,0-0.5-0.2-0.5-0.5s0.2-0.5,0.5-0.5s0.5,0.2,0.5,0.5S422.6,138.4,422.3,138.4z M422.7,143
				h-0.8v-3.8h0.8V143z"/>
			<path class="st32" d="M425.9,143.1c-0.6,0-1-0.3-1.3-0.7l0,0v2.1h-0.8v-5.3h0.7v0.6l0,0c0.3-0.4,0.8-0.7,1.4-0.7
				c1.1,0,1.8,0.8,1.8,2C427.8,142.2,427,143.1,425.9,143.1z M425.8,139.8c-0.8,0-1.2,0.6-1.2,1.3s0.4,1.3,1.2,1.3
				c0.8,0,1.2-0.6,1.2-1.3S426.5,139.8,425.8,139.8z"/>
			<path class="st32" d="M430.4,143c0,0-0.3,0.1-0.7,0.1s-0.6-0.2-0.8-0.4c-0.2-0.2-0.2-0.5-0.2-1.1v-1.7h-0.6v-0.6h0.6v-1.1h0.8
				v1.1h0.9v0.6h-0.9v1.7c0,0.3,0,0.5,0.1,0.7c0.1,0.1,0.2,0.2,0.4,0.2c0.2,0,0.4-0.1,0.4-0.1L430.4,143z"/>
			<path class="st32" d="M433.2,142.8c-0.3,0.2-0.6,0.3-1.1,0.3c-0.6,0-1.2-0.3-1.5-0.7l0.4-0.4c0.3,0.4,0.8,0.5,1.1,0.5
				c0.4,0,0.7-0.1,0.7-0.5s-0.6-0.5-0.9-0.6s-0.3-0.1-0.5-0.2c-0.2-0.1-0.6-0.4-0.6-0.9c0-0.7,0.6-1.1,1.3-1.1
				c0.7,0,1.1,0.2,1.3,0.5l-0.3,0.5c-0.2-0.2-0.6-0.4-1-0.4s-0.6,0.2-0.6,0.5s0.4,0.4,0.7,0.6c0.2,0.1,0.4,0.1,0.5,0.2
				c0.2,0.1,0.3,0.2,0.4,0.3s0.3,0.4,0.3,0.7C433.6,142.3,433.5,142.5,433.2,142.8z"/>
		</g>
		<g>
			<path class="st1" d="M97.5,141h-1.4v-16.8h-3.7V123h5.1V141z"/>
			<path class="st1" d="M108.4,141.3c-3.6,0-5.3-3.1-5.3-3.1l1-0.8c0,0,1.6,2.7,4.3,2.7c2.7,0,4.6-1.4,4.6-3.9s-2-3.8-4.3-3.8h-1.2
				V131h1.2c2.2,0,3.8-1.2,3.8-3.5s-1.8-3.4-3.9-3.4s-3.3,1.1-4.3,2.3l-0.9-0.8c1.1-1.4,2.6-2.7,5.3-2.7c2.7,0,5.2,1.7,5.2,4.6
				c0,2.9-2.1,3.9-3.1,4.2v0.1c1.3,0.2,3.6,1.5,3.6,4.5C114.5,139.2,111.9,141.3,108.4,141.3z"/>
			<path class="st1" d="M123.8,141.3c-3.5,0-4.8-2.4-5.2-3.2s-1-2.5-1-5.7s0.9-5.6,1.9-7.2c1-1.5,2.5-2.5,4.9-2.5
				c3.2,0,4.7,1.9,4.7,1.9l-0.8,1c-1-0.9-2.1-1.7-4-1.7c-1.8,0-2.9,0.7-3.8,2.1s-1.6,3.6-1.6,7c0.7-1.7,2.2-3.3,5.1-3.3
				s5.5,2.2,5.5,5.5C129.6,138.7,127.4,141.3,123.8,141.3z M123.8,131c-2.9,0-4.4,2.2-4.4,4.5s1.4,4.6,4.4,4.6
				c2.9,0,4.3-2.2,4.3-4.6S126.8,131,123.8,131z"/>
		</g>
		<g>
			<path class="st1" d="M346.5,145.4c-4.9,0-8.4-2.8-8.4-7.5c0-3.4,2.1-5.8,5-6.8V131c-1.6-0.7-4.2-2-4.2-6.1s3.5-6.6,7.5-6.6
				s7.5,2.5,7.5,6.6s-2.5,5.4-4.2,6.1v0.1c3,1,5.1,3.3,5.1,6.8C354.8,142.6,351.4,145.4,346.5,145.4z M346.5,132
				c-3.6,0-6.3,2.2-6.3,5.8s2.8,5.9,6.3,5.9c3.4,0,6.3-2.2,6.3-5.9S350.1,132,346.5,132z M346.5,120.2c-3,0-5.4,1.7-5.4,5
				s2.4,5,5.4,5s5.4-1.7,5.4-5S349.5,120.2,346.5,120.2z"/>
		</g>
		<circle class="st0" cx="151" cy="65.3" r="18.1"/>
		<circle class="st0" cx="388" cy="65.3" r="18.1"/>
		<g>
			<g>
				<ellipse class="st33" cx="150.3" cy="65.3" rx="13.3" ry="13.3"/>
			</g>
			<g>
				<path class="st34" d="M146.5,62.5c0,2.1,1.7,3.9,3.9,3.9c2.1,0,3.9-1.7,3.9-3.9H146.5z"/>
			</g>
			<g>
				<path class="st35" d="M153,65.3c-0.7-0.7-1.6-1.1-2.7-1.1c-1.1,0-2,0.4-2.7,1.1c0.7,0.7,1.6,1.1,2.7,1.1S152.3,66,153,65.3z"/>
			</g>
			<g>
				<path class="st34" d="M147.3,58.2c0-0.6-0.5-1.1-1.1-1.1s-1.1,0.5-1.1,1.1s0.5,1.1,1.1,1.1S147.3,58.8,147.3,58.2z"/>
			</g>
			<g>
				<ellipse class="st34" cx="154.5" cy="58.2" rx="1.1" ry="1.1"/>
			</g>
		</g>
		<g>
			<g>
				
					<ellipse transform="matrix(0.1144 -0.9934 0.9934 0.1144 277.588 444.3409)" class="st33" cx="388" cy="66.5" rx="13.2" ry="13.2"/>
			</g>
			<g>
				<path class="st34" d="M389.1,68.1c-0.3,0-0.5-0.2-0.6-0.5c0-2.4,2-4.4,4.4-4.4l0,0c0.3,0,0.5,0.2,0.6,0.5c0,0.3-0.2,0.6-0.5,0.6
					c-1.8,0-3.3,1.5-3.3,3.3C389.7,67.8,389.4,68.1,389.1,68.1L389.1,68.1z"/>
			</g>
			<g>
				<path class="st34" d="M391.1,59.3c0-0.6,0.5-1.1,1.1-1.1s1.1,0.5,1.1,1.1s-0.5,1.1-1.1,1.1C391.6,60.4,391.1,59.9,391.1,59.3z"
					/>
			</g>
			<g>
				<path class="st34" d="M382.8,59.3c0-0.6,0.5-1.1,1.1-1.1s1.1,0.5,1.1,1.1s-0.5,1.1-1.1,1.1C383.3,60.4,382.8,59.9,382.8,59.3z"
					/>
			</g>
		</g>
	</g>
</g>
</svg>
