<?xml version="1.0" encoding="UTF-8"?>
<svg width="15px" height="12px" viewBox="0 0 15 12" version="1.1" xmlns="http://www.w3.org/2000/svg" xmlns:xlink="http://www.w3.org/1999/xlink">
    <!-- Generator: Sketch 44.1 (41455) - http://www.bohemiancoding.com/sketch -->
    <title>Shape</title>
    <desc>Created with Sketch.</desc>
    <defs></defs>
    <g stroke="none" stroke-width="1" fill="none" fill-rule="evenodd">
        <g transform="translate(-1161.000000, -43.000000)" fill-rule="nonzero" fill="#5EACEC">
            <g transform="translate(1161.000000, 43.000000)">
                <path d="M14.9247151,5.55621185 C14.8841588,5.43454298 14.8030462,5.31287411 14.7219336,5.23176153 L9.85517869,0.304172182 C9.65239723,0.101390727 9.38878134,0 9.12516545,0 C8.86154956,0 8.63848996,0.121668873 8.4762648,0.304172182 C8.29376149,0.486675491 8.19237076,0.730013236 8.19237076,1.01390727 C8.19237076,1.27752316 8.29376149,1.54113905 8.4762648,1.72364236 L11.6802118,4.92758934 L0.993629127,4.92758934 C0.4461192,4.92758934 0,5.3534304 0,5.92121847 C0,6.48900654 0.425841054,6.9148476 0.993629127,6.9148476 L11.7004899,6.9148476 L8.4762648,10.0579601 C8.29376149,10.2404635 8.19237076,10.4838012 8.19237076,10.7676952 C8.19237076,11.0515893 8.27348334,11.294927 8.4762648,11.4774303 C8.65876811,11.6599336 8.922384,11.7816025 9.18599989,11.7816025 L9.20627803,11.7816025 C9.46989392,11.7816025 9.69295352,11.6599336 9.85517869,11.4774303 L14.7219336,6.61067542 C14.7422117,6.59039727 14.7624899,6.54984098 14.782768,6.52956283 C14.782768,6.50928469 14.8030462,6.50928469 14.8233243,6.4687284 C15.0261058,6.20511251 15.0463839,5.84010589 14.9247151,5.55621185 Z" ></path>
            </g>
        </g>
    </g>
</svg>